<?xml version="1.0" encoding="UTF-8"?>
<svg id="Laag_1" data-name="Laag 1" xmlns="http://www.w3.org/2000/svg" xmlns:xlink="http://www.w3.org/1999/xlink" viewBox="0 0 800 300">
  <defs>
    <linearGradient id="Naamloos_verloop_10" data-name="Naamloos verloop 10" x1="283.27" y1="-23.84" x2="497.07" y2="346.47" gradientUnits="userSpaceOnUse">
      <stop offset=".25" stop-color="#da472b"/>
      <stop offset=".38" stop-color="#d23a22"/>
      <stop offset=".56" stop-color="#cb2e1b"/>
      <stop offset=".75" stop-color="#c92b19"/>
    </linearGradient>
  </defs>
  <g id="title">
    <g>
      <path d="M157.5,82.54l-.46,19.71-13.86.56-3.53,44.08-19.62,1.02.09-44.08-13.86.74.56-21.95,50.68-.09Z" fill="#000" stroke="#fff" stroke-linecap="round" stroke-linejoin="round" stroke-width="24"/>
      <path d="M204.62,149.03l-18.96.91-.15-17.52h-8.72l-.53,16.61h-16.98l1.44-53.3,18.05.83-1.14,27.22h8.42l.08-29.27,17.29.46,1.21,54.06Z" fill="#000" stroke="#fff" stroke-linecap="round" stroke-linejoin="round" stroke-width="24"/>
      <path d="M249.48,86.63c-.17,2.71-.33,5.4-.48,8.05-.15,2.65-.33,5.34-.56,8.05l-18.35.95-.43,5.45h12.9l-.95,13.42-12.98.43-.43,6.32h18.35c-.17,3.17-.35,6.33-.54,9.46-.19,3.13-.35,6.27-.5,9.41l-37.3.87,1.38-62.41h39.9Z" fill="#000" stroke="#fff" stroke-linecap="round" stroke-linejoin="round" stroke-width="24"/>
      <path d="M404.68,28.91l-7.58,120.95-37.57,1.65.33-63.77-16.97,51.41h-14.5l-13.02-45.98-.17,53.39-38.07,1.15,1.65-113.87,42.35-1.65,16.81,54.54,22.41-57.84h44.33Z" fill="#000" stroke="#fff" stroke-linecap="round" stroke-linejoin="round" stroke-width="24"/>
      <path d="M484.85,106.05c0,3.69-.43,7.26-1.28,10.69-.85,3.43-2.08,6.65-3.68,9.65-1.6,3-3.55,5.75-5.85,8.25-2.29,2.5-4.87,4.64-7.73,6.42-2.86,1.79-5.98,3.18-9.35,4.17-3.37,1-6.94,1.49-10.72,1.49s-7.13-.47-10.44-1.4c-3.31-.93-6.4-2.24-9.29-3.93-2.88-1.68-5.49-3.71-7.82-6.09-2.33-2.38-4.32-5.01-5.97-7.92-1.64-2.9-2.92-6.02-3.84-9.35-.91-3.33-1.37-6.8-1.37-10.41s.43-6.99,1.28-10.38c.85-3.39,2.08-6.59,3.68-9.59,1.6-3,3.54-5.76,5.82-8.28,2.27-2.52,4.82-4.69,7.64-6.52s5.88-3.25,9.16-4.26c3.29-1.01,6.76-1.52,10.41-1.52,5.88,0,11.25.91,16.1,2.74,4.85,1.83,8.99,4.44,12.42,7.82,3.43,3.39,6.09,7.49,7.98,12.3s2.83,10.18,2.83,16.1ZM457.82,107.63c0-1.75-.25-3.44-.76-5.08-.51-1.64-1.25-3.1-2.22-4.38s-2.18-2.31-3.62-3.11c-1.44-.79-3.1-1.19-4.96-1.19s-3.61.35-5.11,1.04c-1.5.69-2.79,1.63-3.87,2.83-1.08,1.2-1.9,2.6-2.47,4.2-.57,1.6-.85,3.3-.85,5.08s.24,3.41.73,5.11c.49,1.71,1.22,3.25,2.19,4.63.97,1.38,2.18,2.5,3.62,3.35,1.44.85,3.11,1.28,5.02,1.28s3.62-.37,5.14-1.13c1.52-.75,2.81-1.77,3.87-3.04,1.06-1.28,1.87-2.75,2.44-4.41.57-1.66.85-3.39.85-5.18Z" fill="#000" stroke="#fff" stroke-linecap="round" stroke-linejoin="round" stroke-width="24"/>
      <path d="M580.81,44.72l-27.23,103.57-36.91,2.08-33.48-104.62,35.27-3.27,14.29,61.01,13.84-61.01,34.23,2.23Z" fill="#000" stroke="#fff" stroke-linecap="round" stroke-linejoin="round" stroke-width="24"/>
      <path d="M618.14,56.71l-7.21,89.3-27.67,1.44V58.55l34.88-1.84Z" fill="#000" stroke="#fff" stroke-linecap="round" stroke-linejoin="round" stroke-width="24"/>
      <path d="M696.37,37.71c-.31,4.84-.59,9.62-.85,14.36-.26,4.74-.59,9.52-1,14.36l-32.73,1.7-.77,9.73h23l-1.7,23.93-23.16.77-.77,11.27h32.73c-.31,5.66-.63,11.28-.96,16.87-.34,5.58-.63,11.18-.89,16.79l-66.55,1.54,2.47-111.32h71.18Z" fill="#000" stroke="#fff" stroke-linecap="round" stroke-linejoin="round" stroke-width="24"/>
      <path d="M163.44,206.86c0,4.63-.69,8.74-2.08,12.32-1.39,3.58-3.28,6.71-5.69,9.38-2.41,2.67-5.24,4.94-8.49,6.8-3.25,1.86-6.72,3.38-10.42,4.55-3.7,1.17-7.53,2.03-11.5,2.58-3.96.55-7.86.85-11.67.9v33.38h-33.38c0-10.93.02-21.82.07-32.66.05-10.84.12-21.77.21-32.81.09-5.83.12-11.65.07-17.48-.05-5.83.07-11.7.36-17.62,6.11-1.81,12.22-3.18,18.34-4.08,6.11-.91,12.41-1.36,18.91-1.36,3.68,0,7.35.3,11.03.9,3.68.6,7.2,1.54,10.56,2.83,3.37,1.29,6.49,2.9,9.38,4.83,2.89,1.93,5.38,4.24,7.48,6.91,2.1,2.67,3.76,5.72,4.98,9.13,1.22,3.41,1.83,7.25,1.83,11.5ZM131.64,209.29c0-3.1-.94-5.53-2.83-7.27-1.89-1.74-4.33-2.61-7.34-2.61-1,0-2.04.08-3.12.25-1.07.17-2.09.37-3.04.61l-.86,20.92c.67.1,1.31.14,1.93.14h1.93c1.72,0,3.38-.29,4.98-.86,1.6-.57,3.02-1.4,4.26-2.47,1.24-1.07,2.23-2.34,2.97-3.8.74-1.46,1.11-3.09,1.11-4.91Z" fill="#000" stroke="#fff" stroke-linecap="round" stroke-linejoin="round" stroke-width="24"/>
      <path d="M229.27,204.67c0,3.09-.36,6.07-1.07,8.94-.71,2.87-1.74,5.56-3.08,8.07-1.34,2.51-2.97,4.81-4.89,6.9-1.92,2.09-4.07,3.88-6.47,5.37-2.39,1.49-5,2.66-7.82,3.49-2.82.83-5.81,1.25-8.96,1.25s-5.97-.39-8.73-1.17c-2.77-.78-5.36-1.88-7.77-3.28-2.41-1.41-4.59-3.11-6.54-5.09-1.95-1.99-3.62-4.19-4.99-6.62-1.38-2.43-2.44-5.03-3.21-7.82-.76-2.78-1.15-5.69-1.15-8.71s.36-5.85,1.07-8.68c.71-2.83,1.74-5.51,3.08-8.02,1.34-2.51,2.96-4.82,4.86-6.93,1.9-2.1,4.03-3.92,6.39-5.45s4.92-2.72,7.67-3.56c2.75-.85,5.65-1.27,8.71-1.27,4.92,0,9.41.76,13.47,2.29,4.06,1.53,7.52,3.71,10.39,6.54,2.87,2.83,5.09,6.26,6.67,10.29,1.58,4.02,2.37,8.51,2.37,13.47ZM206.66,206c0-1.46-.21-2.88-.64-4.25s-1.04-2.6-1.86-3.67c-.81-1.07-1.83-1.94-3.03-2.6-1.21-.66-2.59-.99-4.15-.99s-3.02.29-4.28.87c-1.26.58-2.33,1.37-3.23,2.37-.9,1-1.59,2.17-2.06,3.51-.48,1.34-.71,2.76-.71,4.25s.2,2.85.61,4.28,1.02,2.72,1.83,3.87c.82,1.15,1.83,2.09,3.03,2.8s2.61,1.07,4.2,1.07,3.03-.31,4.3-.94c1.27-.63,2.35-1.48,3.23-2.55.88-1.07,1.56-2.3,2.04-3.69.48-1.39.71-2.83.71-4.33Z" fill="#000" stroke="#fff" stroke-linecap="round" stroke-linejoin="round" stroke-width="24"/>
      <path d="M288.37,222.46c0,4.9-.85,9.17-2.54,12.84-1.7,3.66-4.02,6.71-6.97,9.14-2.95,2.43-6.4,4.25-10.34,5.47-3.95,1.21-8.19,1.82-12.73,1.82-1.75,0-3.67-.23-5.76-.7s-4.21-1.05-6.35-1.74c-2.14-.7-4.21-1.45-6.19-2.25-1.98-.8-3.74-1.56-5.28-2.28l2.36-22.08c3.04,1.82,6.41,3.21,10.1,4.15,3.7.95,7.33,1.42,10.91,1.42.68,0,1.5-.03,2.47-.08.96-.05,1.88-.21,2.76-.48.88-.27,1.62-.67,2.22-1.21.61-.54.91-1.3.91-2.3,0-.68-.21-1.26-.64-1.74-.43-.48-.98-.88-1.66-1.18-.68-.3-1.45-.54-2.3-.7s-1.7-.28-2.52-.35c-.82-.07-1.59-.11-2.3-.11h-1.72c-3.07,0-5.87-.54-8.39-1.61-2.52-1.07-4.68-2.56-6.49-4.48-1.8-1.91-3.21-4.18-4.21-6.81s-1.5-5.48-1.5-8.55c0-4.22.85-7.99,2.55-11.33,1.7-3.34,3.97-6.18,6.81-8.52,2.84-2.34,6.1-4.14,9.78-5.39,3.68-1.25,7.48-1.88,11.42-1.88,1.75,0,3.55.06,5.41.19,1.86.13,3.71.35,5.55.67,1.84.32,3.63.73,5.39,1.23,1.75.5,3.41,1.13,4.98,1.88l-2.04,21.76c-2.43-.82-4.98-1.51-7.64-2.06-2.66-.55-5.26-.83-7.8-.83-.46,0-1.06,0-1.79.03-.73.02-1.5.07-2.3.16-.8.09-1.62.22-2.44.4-.82.18-1.55.42-2.2.72-.64.3-1.16.71-1.55,1.21-.39.5-.57,1.09-.54,1.77.04.79.33,1.42.88,1.9s1.27.86,2.14,1.13c.88.27,1.84.46,2.89.56,1.05.11,2.1.17,3.13.19,1.04.02,2,.02,2.89,0,.89-.02,1.62,0,2.2.08,2.86.18,5.43.79,7.72,1.82,2.29,1.04,4.22,2.41,5.81,4.13s2.8,3.76,3.64,6.14c.84,2.38,1.26,4.99,1.26,7.85Z" fill="#000" stroke="#fff" stroke-linecap="round" stroke-linejoin="round" stroke-width="24"/>
      <path d="M346.53,174.85l-.52,22.01-15.47.62-3.95,49.21-21.91,1.14.1-49.21-15.47.83.62-24.5,56.58-.1Z" fill="#000" stroke="#fff" stroke-linecap="round" stroke-linejoin="round" stroke-width="24"/>
      <path d="M388.42,177.65c-.17,2.62-.32,5.21-.46,7.77-.14,2.56-.32,5.15-.54,7.77l-17.71.92-.42,5.26h12.45l-.92,12.95-12.53.42-.42,6.1h17.71c-.17,3.06-.34,6.11-.52,9.13-.18,3.02-.34,6.05-.48,9.08l-36.01.84,1.34-60.23h38.51Z" fill="#000" stroke="#fff" stroke-linecap="round" stroke-linejoin="round" stroke-width="24"/>
      <path d="M455.01,200.58c0,2.86-.25,5.46-.74,7.79-.5,2.33-1.27,4.47-2.34,6.41-1.06,1.94-2.44,3.74-4.13,5.39-1.69,1.65-3.72,3.23-6.11,4.73l13.1,23.33-24.76,4.84-8.47-23.44-6.82.22-.99,22.89h-23.66c.18-8.36.36-16.69.52-24.98.17-8.29.36-16.62.58-24.98.07-4.22.15-8.4.22-12.55.07-4.15.22-8.33.44-12.55,2.57-.95,5.1-1.74,7.59-2.37,2.49-.62,5-1.11,7.51-1.46,2.51-.35,5.06-.59,7.65-.72,2.59-.13,5.24-.19,7.95-.19,4.18,0,8.23.58,12.13,1.73,3.91,1.16,7.36,2.89,10.37,5.2s5.42,5.19,7.24,8.64c1.82,3.45,2.72,7.47,2.72,12.05ZM430.36,202.34c0-1.54-.21-2.95-.63-4.24-.42-1.28-1.04-2.39-1.87-3.33-.83-.94-1.85-1.67-3.08-2.2-1.23-.53-2.67-.8-4.32-.8-.73,0-1.45.05-2.15.14-.7.09-1.38.23-2.04.41l-.88,20.47h1.32c1.58,0,3.18-.2,4.82-.61,1.63-.4,3.1-1.03,4.4-1.87,1.3-.84,2.37-1.93,3.19-3.25.83-1.32,1.24-2.9,1.24-4.73Z" fill="#000" stroke="#fff" stroke-linecap="round" stroke-linejoin="round" stroke-width="24"/>
      <path d="M565.29,212.64c0,6.17-1.15,12.06-3.44,17.66-2.29,5.6-5.73,10.51-10.32,14.73l8.4,9.99-22.29,14.37-5.24-14.37c-1.54.33-3.1.57-4.66.73-1.56.16-3.14.24-4.72.24-3.9,0-7.63-.49-11.2-1.46s-6.92-2.34-10.05-4.11c-3.13-1.77-5.97-3.91-8.52-6.42-2.56-2.52-4.76-5.32-6.61-8.4-1.85-3.08-3.27-6.42-4.26-10.02-1-3.59-1.49-7.34-1.49-11.23s.48-7.6,1.43-11.23c.95-3.63,2.31-7.05,4.08-10.26,1.77-3.21,3.9-6.14,6.39-8.8,2.5-2.66,5.29-4.95,8.37-6.88,3.08-1.93,6.41-3.42,9.99-4.48,3.57-1.06,7.33-1.58,11.26-1.58,6.29,0,12.07.95,17.32,2.86,5.26,1.91,9.77,4.65,13.55,8.22,3.78,3.57,6.72,7.93,8.83,13.06,2.11,5.14,3.17,10.93,3.17,17.38ZM535.7,214.35c0-1.87-.27-3.68-.82-5.45-.55-1.77-1.35-3.33-2.4-4.69-1.06-1.36-2.38-2.44-3.96-3.26-1.58-.81-3.41-1.22-5.48-1.22s-3.86.36-5.48,1.07c-1.62.71-3.01,1.7-4.17,2.95-1.16,1.26-2.05,2.74-2.68,4.44-.63,1.7-.94,3.55-.94,5.54,0,1.87.27,3.7.82,5.51.55,1.81,1.35,3.43,2.41,4.87,1.05,1.44,2.38,2.61,3.96,3.5,1.58.89,3.41,1.34,5.48,1.34s3.81-.4,5.45-1.19c1.64-.79,3.04-1.86,4.2-3.2,1.16-1.34,2.05-2.89,2.68-4.66.63-1.77.94-3.62.94-5.57Z" fill="#000" stroke="#fff" stroke-linecap="round" stroke-linejoin="round" stroke-width="24"/>
      <path d="M630.91,191.33c0,2.55-.12,5.35-.36,8.42-.24,3.06-.64,6.23-1.19,9.5-.55,3.27-1.26,6.58-2.14,9.94-.88,3.36-1.97,6.58-3.28,9.68-1.31,3.1-2.83,6-4.57,8.7-1.74,2.7-3.74,5.06-5.99,7.08s-4.78,3.6-7.57,4.75c-2.79,1.15-5.89,1.73-9.3,1.73-4,0-7.46-.65-10.41-1.94-2.94-1.29-5.47-3.03-7.57-5.22-2.1-2.19-3.82-4.73-5.16-7.64-1.34-2.91-2.39-5.99-3.15-9.25-.76-3.25-1.28-6.58-1.58-9.97-.29-3.39-.44-6.65-.44-9.79,0-4.82.24-9.63.72-14.44.48-4.8,1.17-9.6,2.07-14.38l24.17.93c-.93,5.41-1.73,10.84-2.4,16.29-.67,5.46-1.01,10.94-1.01,16.45,0,.59.03,1.46.08,2.61.05,1.15.15,2.44.28,3.87.14,1.43.33,2.89.59,4.39.26,1.5.61,2.87,1.06,4.11.45,1.24.99,2.26,1.63,3.05.64.79,1.39,1.19,2.25,1.19,1,0,1.89-.47,2.69-1.42.79-.95,1.49-2.21,2.09-3.8.6-1.58,1.13-3.41,1.58-5.47.45-2.07.83-4.22,1.14-6.46.31-2.24.56-4.48.75-6.71.19-2.24.34-4.32.46-6.25.12-1.93.2-3.63.23-5.11.03-1.48.05-2.58.05-3.31,0-2.69-.04-5.36-.13-8.03-.09-2.67-.21-5.33-.39-7.98h24.17c.41,4.75.62,9.57.62,14.46Z" fill="#000" stroke="#fff" stroke-linecap="round" stroke-linejoin="round" stroke-width="24"/>
      <path d="M663.06,176.83l-5.7,70.63-21.88,1.14v-70.31l27.59-1.45Z" fill="#000" stroke="#fff" stroke-linecap="round" stroke-linejoin="round" stroke-width="24"/>
      <path d="M722.81,198.11l-27.89,37.63h26.91l-.37,25.82-54.31,2.19-2.44-23.87,31.78-41.4-29.1,2.19-.24-24.48h54.56l1.1,21.92Z" fill="#000" stroke="#fff" stroke-linecap="round" stroke-linejoin="round" stroke-width="24"/>
    </g>
    <g>
      <g>
        <path d="M157.11,82.68l-.46,19.71-13.86.56-3.53,44.08-19.62,1.02.09-44.08-13.86.74.56-21.95,50.68-.09Z" fill="#000" stroke-width="0"/>
        <path d="M204.23,149.17l-18.96.91-.15-17.52h-8.72l-.53,16.61h-16.98l1.44-53.3,18.05.83-1.14,27.22h8.42l.08-29.27,17.29.46,1.21,54.06Z" fill="#000" stroke-width="0"/>
        <path d="M249.09,86.76c-.17,2.71-.33,5.4-.48,8.05-.15,2.65-.33,5.34-.56,8.05l-18.35.95-.43,5.45h12.9l-.95,13.42-12.98.43-.43,6.32h18.35c-.17,3.17-.35,6.33-.54,9.46-.19,3.13-.35,6.27-.5,9.41l-37.3.87,1.38-62.41h39.9Z" fill="#000" stroke-width="0"/>
        <path d="M404.29,29.04l-7.58,120.95-37.57,1.65.33-63.77-16.97,51.41h-14.5l-13.02-45.98-.17,53.39-38.07,1.15,1.65-113.87,42.35-1.65,16.81,54.54,22.41-57.84h44.33Z" fill="#000" stroke-width="0"/>
        <path d="M484.46,106.18c0,3.69-.43,7.26-1.28,10.69-.85,3.43-2.08,6.65-3.68,9.65-1.6,3-3.55,5.75-5.85,8.25-2.29,2.5-4.87,4.64-7.73,6.42-2.86,1.79-5.98,3.18-9.35,4.17-3.37,1-6.94,1.49-10.72,1.49s-7.13-.47-10.44-1.4c-3.31-.93-6.4-2.24-9.29-3.93-2.88-1.68-5.49-3.71-7.82-6.09-2.33-2.38-4.32-5.01-5.97-7.92-1.64-2.9-2.92-6.02-3.84-9.35-.91-3.33-1.37-6.8-1.37-10.41s.43-6.99,1.28-10.38c.85-3.39,2.08-6.59,3.68-9.59,1.6-3,3.54-5.76,5.82-8.28,2.27-2.52,4.82-4.69,7.64-6.52s5.88-3.25,9.16-4.26c3.29-1.01,6.76-1.52,10.41-1.52,5.88,0,11.25.91,16.1,2.74,4.85,1.83,8.99,4.44,12.42,7.82,3.43,3.39,6.09,7.49,7.98,12.3s2.83,10.18,2.83,16.1ZM457.43,107.77c0-1.75-.25-3.44-.76-5.08-.51-1.64-1.25-3.1-2.22-4.38s-2.18-2.31-3.62-3.11c-1.44-.79-3.1-1.19-4.96-1.19s-3.61.35-5.11,1.04c-1.5.69-2.79,1.63-3.87,2.83-1.08,1.2-1.9,2.6-2.47,4.2-.57,1.6-.85,3.3-.85,5.08s.24,3.41.73,5.11c.49,1.71,1.22,3.25,2.19,4.63.97,1.38,2.18,2.5,3.62,3.35,1.44.85,3.11,1.28,5.02,1.28s3.62-.37,5.14-1.13c1.52-.75,2.81-1.77,3.87-3.04,1.06-1.28,1.87-2.75,2.44-4.41.57-1.66.85-3.39.85-5.18Z" fill="#000" stroke-width="0"/>
        <path d="M580.42,44.85l-27.23,103.57-36.91,2.08-33.48-104.62,35.27-3.27,14.29,61.01,13.84-61.01,34.23,2.23Z" fill="#000" stroke-width="0"/>
        <path d="M617.75,56.85l-7.21,89.3-27.67,1.44V58.69l34.88-1.84Z" fill="#000" stroke-width="0"/>
        <path d="M695.98,37.85c-.31,4.84-.59,9.62-.85,14.36-.26,4.74-.59,9.52-1,14.36l-32.73,1.7-.77,9.73h23l-1.7,23.93-23.16.77-.77,11.27h32.73c-.31,5.66-.63,11.28-.96,16.87-.34,5.58-.63,11.18-.89,16.79l-66.55,1.54,2.47-111.32h71.18Z" fill="#000" stroke-width="0"/>
        <path d="M163.05,206.99c0,4.63-.69,8.74-2.08,12.32-1.39,3.58-3.28,6.71-5.69,9.38-2.41,2.67-5.24,4.94-8.49,6.8-3.25,1.86-6.72,3.38-10.42,4.55-3.7,1.17-7.53,2.03-11.5,2.58-3.96.55-7.86.85-11.67.9v33.38h-33.38c0-10.93.02-21.82.07-32.66.05-10.84.12-21.77.21-32.81.09-5.83.12-11.65.07-17.48-.05-5.83.07-11.7.36-17.62,6.11-1.81,12.22-3.18,18.34-4.08,6.11-.91,12.41-1.36,18.91-1.36,3.68,0,7.35.3,11.03.9,3.68.6,7.2,1.54,10.56,2.83,3.37,1.29,6.49,2.9,9.38,4.83,2.89,1.93,5.38,4.24,7.48,6.91,2.1,2.67,3.76,5.72,4.98,9.13,1.22,3.41,1.83,7.25,1.83,11.5ZM131.25,209.43c0-3.1-.94-5.53-2.83-7.27-1.89-1.74-4.33-2.61-7.34-2.61-1,0-2.04.08-3.12.25-1.07.17-2.09.37-3.04.61l-.86,20.92c.67.1,1.31.14,1.93.14h1.93c1.72,0,3.38-.29,4.98-.86,1.6-.57,3.02-1.4,4.26-2.47,1.24-1.07,2.23-2.34,2.97-3.8.74-1.46,1.11-3.09,1.11-4.91Z" fill="#000" stroke-width="0"/>
        <path d="M228.88,204.81c0,3.09-.36,6.07-1.07,8.94-.71,2.87-1.74,5.56-3.08,8.07-1.34,2.51-2.97,4.81-4.89,6.9-1.92,2.09-4.07,3.88-6.47,5.37-2.39,1.49-5,2.66-7.82,3.49-2.82.83-5.81,1.25-8.96,1.25s-5.97-.39-8.73-1.17c-2.77-.78-5.36-1.88-7.77-3.28-2.41-1.41-4.59-3.11-6.54-5.09-1.95-1.99-3.62-4.19-4.99-6.62-1.38-2.43-2.44-5.03-3.21-7.82-.76-2.78-1.15-5.69-1.15-8.71s.36-5.85,1.07-8.68c.71-2.83,1.74-5.51,3.08-8.02,1.34-2.51,2.96-4.82,4.86-6.93,1.9-2.1,4.03-3.92,6.39-5.45s4.92-2.72,7.67-3.56c2.75-.85,5.65-1.27,8.71-1.27,4.92,0,9.41.76,13.47,2.29,4.06,1.53,7.52,3.71,10.39,6.54,2.87,2.83,5.09,6.26,6.67,10.29,1.58,4.02,2.37,8.51,2.37,13.47ZM206.26,206.13c0-1.46-.21-2.88-.64-4.25s-1.04-2.6-1.86-3.67c-.81-1.07-1.83-1.94-3.03-2.6-1.21-.66-2.59-.99-4.15-.99s-3.02.29-4.28.87c-1.26.58-2.33,1.37-3.23,2.37-.9,1-1.59,2.17-2.06,3.51-.48,1.34-.71,2.76-.71,4.25s.2,2.85.61,4.28,1.02,2.72,1.83,3.87c.82,1.15,1.83,2.09,3.03,2.8s2.61,1.07,4.2,1.07,3.03-.31,4.3-.94c1.27-.63,2.35-1.48,3.23-2.55.88-1.07,1.56-2.3,2.04-3.69.48-1.39.71-2.83.71-4.33Z" fill="#000" stroke-width="0"/>
        <path d="M287.98,222.6c0,4.9-.85,9.17-2.54,12.84-1.7,3.66-4.02,6.71-6.97,9.14-2.95,2.43-6.4,4.25-10.34,5.47-3.95,1.21-8.19,1.82-12.73,1.82-1.75,0-3.67-.23-5.76-.7s-4.21-1.05-6.35-1.74c-2.14-.7-4.21-1.45-6.19-2.25-1.98-.8-3.74-1.56-5.28-2.28l2.36-22.08c3.04,1.82,6.41,3.21,10.1,4.15,3.7.95,7.33,1.42,10.91,1.42.68,0,1.5-.03,2.47-.08.96-.05,1.88-.21,2.76-.48.88-.27,1.62-.67,2.22-1.21.61-.54.91-1.3.91-2.3,0-.68-.21-1.26-.64-1.74-.43-.48-.98-.88-1.66-1.18-.68-.3-1.45-.54-2.3-.7s-1.7-.28-2.52-.35c-.82-.07-1.59-.11-2.3-.11h-1.72c-3.07,0-5.87-.54-8.39-1.61-2.52-1.07-4.68-2.56-6.49-4.48-1.8-1.91-3.21-4.18-4.21-6.81s-1.5-5.48-1.5-8.55c0-4.22.85-7.99,2.55-11.33,1.7-3.34,3.97-6.18,6.81-8.52,2.84-2.34,6.1-4.14,9.78-5.39,3.68-1.25,7.48-1.88,11.42-1.88,1.75,0,3.55.06,5.41.19,1.86.13,3.71.35,5.55.67,1.84.32,3.63.73,5.39,1.23,1.75.5,3.41,1.13,4.98,1.88l-2.04,21.76c-2.43-.82-4.98-1.51-7.64-2.06-2.66-.55-5.26-.83-7.8-.83-.46,0-1.06,0-1.79.03-.73.02-1.5.07-2.3.16-.8.09-1.62.22-2.44.4-.82.18-1.55.42-2.2.72-.64.3-1.16.71-1.55,1.21-.39.5-.57,1.09-.54,1.77.04.79.33,1.42.88,1.9s1.27.86,2.14,1.13c.88.27,1.84.46,2.89.56,1.05.11,2.1.17,3.13.19,1.04.02,2,.02,2.89,0,.89-.02,1.62,0,2.2.08,2.86.18,5.43.79,7.72,1.82,2.29,1.04,4.22,2.41,5.81,4.13s2.8,3.76,3.64,6.14c.84,2.38,1.26,4.99,1.26,7.85Z" fill="#000" stroke-width="0"/>
        <path d="M346.14,174.98l-.52,22.01-15.47.62-3.95,49.21-21.91,1.14.1-49.21-15.47.83.62-24.5,56.58-.1Z" fill="#000" stroke-width="0"/>
        <path d="M388.03,177.79c-.17,2.62-.32,5.21-.46,7.77-.14,2.56-.32,5.15-.54,7.77l-17.71.92-.42,5.26h12.45l-.92,12.95-12.53.42-.42,6.1h17.71c-.17,3.06-.34,6.11-.52,9.13-.18,3.02-.34,6.05-.48,9.08l-36.01.84,1.34-60.23h38.51Z" fill="#000" stroke-width="0"/>
        <path d="M454.62,200.72c0,2.86-.25,5.46-.74,7.79-.5,2.33-1.27,4.47-2.34,6.41-1.06,1.94-2.44,3.74-4.13,5.39-1.69,1.65-3.72,3.23-6.11,4.73l13.1,23.33-24.76,4.84-8.47-23.44-6.82.22-.99,22.89h-23.66c.18-8.36.36-16.69.52-24.98.17-8.29.36-16.62.58-24.98.07-4.22.15-8.4.22-12.55.07-4.15.22-8.33.44-12.55,2.57-.95,5.1-1.74,7.59-2.37,2.49-.62,5-1.11,7.51-1.46,2.51-.35,5.06-.59,7.65-.72,2.59-.13,5.24-.19,7.95-.19,4.18,0,8.23.58,12.13,1.73,3.91,1.16,7.36,2.89,10.37,5.2s5.42,5.19,7.24,8.64c1.82,3.45,2.72,7.47,2.72,12.05ZM429.97,202.48c0-1.54-.21-2.95-.63-4.24-.42-1.28-1.04-2.39-1.87-3.33-.83-.94-1.85-1.67-3.08-2.2-1.23-.53-2.67-.8-4.32-.8-.73,0-1.45.05-2.15.14-.7.09-1.38.23-2.04.41l-.88,20.47h1.32c1.58,0,3.18-.2,4.82-.61,1.63-.4,3.1-1.03,4.4-1.87,1.3-.84,2.37-1.93,3.19-3.25.83-1.32,1.24-2.9,1.24-4.73Z" fill="#000" stroke-width="0"/>
        <path d="M564.9,212.78c0,6.17-1.15,12.06-3.44,17.66-2.29,5.6-5.73,10.51-10.32,14.73l8.4,9.99-22.29,14.37-5.24-14.37c-1.54.33-3.1.57-4.66.73-1.56.16-3.14.24-4.72.24-3.9,0-7.63-.49-11.2-1.46s-6.92-2.34-10.05-4.11c-3.13-1.77-5.97-3.91-8.52-6.42-2.56-2.52-4.76-5.32-6.61-8.4-1.85-3.08-3.27-6.42-4.26-10.02-1-3.59-1.49-7.34-1.49-11.23s.48-7.6,1.43-11.23c.95-3.63,2.31-7.05,4.08-10.26,1.77-3.21,3.9-6.14,6.39-8.8,2.5-2.66,5.29-4.95,8.37-6.88,3.08-1.93,6.41-3.42,9.99-4.48,3.57-1.06,7.33-1.58,11.26-1.58,6.29,0,12.07.95,17.32,2.86,5.26,1.91,9.77,4.65,13.55,8.22,3.78,3.57,6.72,7.93,8.83,13.06,2.11,5.14,3.17,10.93,3.17,17.38ZM535.31,214.48c0-1.87-.27-3.68-.82-5.45-.55-1.77-1.35-3.33-2.4-4.69-1.06-1.36-2.38-2.44-3.96-3.26-1.58-.81-3.41-1.22-5.48-1.22s-3.86.36-5.48,1.07c-1.62.71-3.01,1.7-4.17,2.95-1.16,1.26-2.05,2.74-2.68,4.44-.63,1.7-.94,3.55-.94,5.54,0,1.87.27,3.7.82,5.51.55,1.81,1.35,3.43,2.41,4.87,1.05,1.44,2.38,2.61,3.96,3.5,1.58.89,3.41,1.34,5.48,1.34s3.81-.4,5.45-1.19c1.64-.79,3.04-1.86,4.2-3.2,1.16-1.34,2.05-2.89,2.68-4.66.63-1.77.94-3.62.94-5.57Z" fill="#000" stroke-width="0"/>
        <path d="M630.52,191.47c0,2.55-.12,5.35-.36,8.42-.24,3.06-.64,6.23-1.19,9.5-.55,3.27-1.26,6.58-2.14,9.94-.88,3.36-1.97,6.58-3.28,9.68-1.31,3.1-2.83,6-4.57,8.7-1.74,2.7-3.74,5.06-5.99,7.08s-4.78,3.6-7.57,4.75c-2.79,1.15-5.89,1.73-9.3,1.73-4,0-7.46-.65-10.41-1.94-2.94-1.29-5.47-3.03-7.57-5.22-2.1-2.19-3.82-4.73-5.16-7.64-1.34-2.91-2.39-5.99-3.15-9.25-.76-3.25-1.28-6.58-1.58-9.97-.29-3.39-.44-6.65-.44-9.79,0-4.82.24-9.63.72-14.44.48-4.8,1.17-9.6,2.07-14.38l24.17.93c-.93,5.41-1.73,10.84-2.4,16.29-.67,5.46-1.01,10.94-1.01,16.45,0,.59.03,1.46.08,2.61.05,1.15.15,2.44.28,3.87.14,1.43.33,2.89.59,4.39.26,1.5.61,2.87,1.06,4.11.45,1.24.99,2.26,1.63,3.05.64.79,1.39,1.19,2.25,1.19,1,0,1.89-.47,2.69-1.42.79-.95,1.49-2.21,2.09-3.8.6-1.58,1.13-3.41,1.58-5.47.45-2.07.83-4.22,1.14-6.46.31-2.24.56-4.48.75-6.71.19-2.24.34-4.32.46-6.25.12-1.93.2-3.63.23-5.11.03-1.48.05-2.58.05-3.31,0-2.69-.04-5.36-.13-8.03-.09-2.67-.21-5.33-.39-7.98h24.17c.41,4.75.62,9.57.62,14.46Z" fill="#000" stroke-width="0"/>
        <path d="M662.67,176.97l-5.7,70.63-21.88,1.14v-70.31l27.59-1.45Z" fill="#000" stroke-width="0"/>
        <path d="M722.42,198.24l-27.89,37.63h26.91l-.37,25.82-54.31,2.19-2.44-23.87,31.78-41.4-29.1,2.19-.24-24.48h54.56l1.1,21.92Z" fill="#000" stroke-width="0"/>
      </g>
      <g>
        <path d="M157.11,82.68l-.46,19.71-13.86.56-3.53,44.08-19.62,1.02.09-44.08-13.86.74.56-21.95,50.68-.09Z" fill="url(#Naamloos_verloop_10)" stroke-width="0"/>
        <path d="M204.23,149.17l-18.96.91-.15-17.52h-8.72l-.53,16.61h-16.98l1.44-53.3,18.05.83-1.14,27.22h8.42l.08-29.27,17.29.46,1.21,54.06Z" fill="url(#Naamloos_verloop_10)" stroke-width="0"/>
        <path d="M249.09,86.76c-.17,2.71-.33,5.4-.48,8.05-.15,2.65-.33,5.34-.56,8.05l-18.35.95-.43,5.45h12.9l-.95,13.42-12.98.43-.43,6.32h18.35c-.17,3.17-.35,6.33-.54,9.46-.19,3.13-.35,6.27-.5,9.41l-37.3.87,1.38-62.41h39.9Z" fill="url(#Naamloos_verloop_10)" stroke-width="0"/>
        <path d="M404.29,29.04l-7.58,120.95-37.57,1.65.33-63.77-16.97,51.41h-14.5l-13.02-45.98-.17,53.39-38.07,1.15,1.65-113.87,42.35-1.65,16.81,54.54,22.41-57.84h44.33Z" fill="url(#Naamloos_verloop_10)" stroke-width="0"/>
        <path d="M484.46,106.18c0,3.69-.43,7.26-1.28,10.69-.85,3.43-2.08,6.65-3.68,9.65-1.6,3-3.55,5.75-5.85,8.25-2.29,2.5-4.87,4.64-7.73,6.42-2.86,1.79-5.98,3.18-9.35,4.17-3.37,1-6.94,1.49-10.72,1.49s-7.13-.47-10.44-1.4c-3.31-.93-6.4-2.24-9.29-3.93-2.88-1.68-5.49-3.71-7.82-6.09-2.33-2.38-4.32-5.01-5.97-7.92-1.64-2.9-2.92-6.02-3.84-9.35-.91-3.33-1.37-6.8-1.37-10.41s.43-6.99,1.28-10.38c.85-3.39,2.08-6.59,3.68-9.59,1.6-3,3.54-5.76,5.82-8.28,2.27-2.52,4.82-4.69,7.64-6.52s5.88-3.25,9.16-4.26c3.29-1.01,6.76-1.52,10.41-1.52,5.88,0,11.25.91,16.1,2.74,4.85,1.83,8.99,4.44,12.42,7.82,3.43,3.39,6.09,7.49,7.98,12.3s2.83,10.18,2.83,16.1ZM457.43,107.77c0-1.75-.25-3.44-.76-5.08-.51-1.64-1.25-3.1-2.22-4.38s-2.18-2.31-3.62-3.11c-1.44-.79-3.1-1.19-4.96-1.19s-3.61.35-5.11,1.04c-1.5.69-2.79,1.63-3.87,2.83-1.08,1.2-1.9,2.6-2.47,4.2-.57,1.6-.85,3.3-.85,5.08s.24,3.41.73,5.11c.49,1.71,1.22,3.25,2.19,4.63.97,1.38,2.18,2.5,3.62,3.35,1.44.85,3.11,1.28,5.02,1.28s3.62-.37,5.14-1.13c1.52-.75,2.81-1.77,3.87-3.04,1.06-1.28,1.87-2.75,2.44-4.41.57-1.66.85-3.39.85-5.18Z" fill="url(#Naamloos_verloop_10)" stroke-width="0"/>
        <path d="M580.42,44.85l-27.23,103.57-36.91,2.08-33.48-104.62,35.27-3.27,14.29,61.01,13.84-61.01,34.23,2.23Z" fill="url(#Naamloos_verloop_10)" stroke-width="0"/>
        <path d="M617.75,56.85l-7.21,89.3-27.67,1.44V58.69l34.88-1.84Z" fill="url(#Naamloos_verloop_10)" stroke-width="0"/>
        <path d="M695.98,37.85c-.31,4.84-.59,9.62-.85,14.36-.26,4.74-.59,9.52-1,14.36l-32.73,1.7-.77,9.73h23l-1.7,23.93-23.16.77-.77,11.27h32.73c-.31,5.66-.63,11.28-.96,16.87-.34,5.58-.63,11.18-.89,16.79l-66.55,1.54,2.47-111.32h71.18Z" fill="url(#Naamloos_verloop_10)" stroke-width="0"/>
        <path d="M163.05,206.99c0,4.63-.69,8.74-2.08,12.32-1.39,3.58-3.28,6.71-5.69,9.38-2.41,2.67-5.24,4.94-8.49,6.8-3.25,1.86-6.72,3.38-10.42,4.55-3.7,1.17-7.53,2.03-11.5,2.58-3.96.55-7.86.85-11.67.9v33.38h-33.38c0-10.93.02-21.82.07-32.66.05-10.84.12-21.77.21-32.81.09-5.83.12-11.65.07-17.48-.05-5.83.07-11.7.36-17.62,6.11-1.81,12.22-3.18,18.34-4.08,6.11-.91,12.41-1.36,18.91-1.36,3.68,0,7.35.3,11.03.9,3.68.6,7.2,1.54,10.56,2.83,3.37,1.29,6.49,2.9,9.38,4.83,2.89,1.93,5.38,4.24,7.48,6.91,2.1,2.67,3.76,5.72,4.98,9.13,1.22,3.41,1.83,7.25,1.83,11.5ZM131.25,209.43c0-3.1-.94-5.53-2.83-7.27-1.89-1.74-4.33-2.61-7.34-2.61-1,0-2.04.08-3.12.25-1.07.17-2.09.37-3.04.61l-.86,20.92c.67.1,1.31.14,1.93.14h1.93c1.72,0,3.38-.29,4.98-.86,1.6-.57,3.02-1.4,4.26-2.47,1.24-1.07,2.23-2.34,2.97-3.8.74-1.46,1.11-3.09,1.11-4.91Z" fill="url(#Naamloos_verloop_10)" stroke-width="0"/>
        <path d="M228.88,204.81c0,3.09-.36,6.07-1.07,8.94-.71,2.87-1.74,5.56-3.08,8.07-1.34,2.51-2.97,4.81-4.89,6.9-1.92,2.09-4.07,3.88-6.47,5.37-2.39,1.49-5,2.66-7.82,3.49-2.82.83-5.81,1.25-8.96,1.25s-5.97-.39-8.73-1.17c-2.77-.78-5.36-1.88-7.77-3.28-2.41-1.41-4.59-3.11-6.54-5.09-1.95-1.99-3.62-4.19-4.99-6.62-1.38-2.43-2.44-5.03-3.21-7.82-.76-2.78-1.15-5.69-1.15-8.71s.36-5.85,1.07-8.68c.71-2.83,1.74-5.51,3.08-8.02,1.34-2.51,2.96-4.82,4.86-6.93,1.9-2.1,4.03-3.92,6.39-5.45s4.92-2.72,7.67-3.56c2.75-.85,5.65-1.27,8.71-1.27,4.92,0,9.41.76,13.47,2.29,4.06,1.53,7.52,3.71,10.39,6.54,2.87,2.83,5.09,6.26,6.67,10.29,1.58,4.02,2.37,8.51,2.37,13.47ZM206.26,206.13c0-1.46-.21-2.88-.64-4.25s-1.04-2.6-1.86-3.67c-.81-1.07-1.83-1.94-3.03-2.6-1.21-.66-2.59-.99-4.15-.99s-3.02.29-4.28.87c-1.26.58-2.33,1.37-3.23,2.37-.9,1-1.59,2.17-2.06,3.51-.48,1.34-.71,2.76-.71,4.25s.2,2.85.61,4.28,1.02,2.72,1.83,3.87c.82,1.15,1.83,2.09,3.03,2.8s2.61,1.07,4.2,1.07,3.03-.31,4.3-.94c1.27-.63,2.35-1.48,3.23-2.55.88-1.07,1.56-2.3,2.04-3.69.48-1.39.71-2.83.71-4.33Z" fill="url(#Naamloos_verloop_10)" stroke-width="0"/>
        <path d="M287.98,222.6c0,4.9-.85,9.17-2.54,12.84-1.7,3.66-4.02,6.71-6.97,9.14-2.95,2.43-6.4,4.25-10.34,5.47-3.95,1.21-8.19,1.82-12.73,1.82-1.75,0-3.67-.23-5.76-.7s-4.21-1.05-6.35-1.74c-2.14-.7-4.21-1.45-6.19-2.25-1.98-.8-3.74-1.56-5.28-2.28l2.36-22.08c3.04,1.82,6.41,3.21,10.1,4.15,3.7.95,7.33,1.42,10.91,1.42.68,0,1.5-.03,2.47-.08.96-.05,1.88-.21,2.76-.48.88-.27,1.62-.67,2.22-1.21.61-.54.91-1.3.91-2.3,0-.68-.21-1.26-.64-1.74-.43-.48-.98-.88-1.66-1.18-.68-.3-1.45-.54-2.3-.7s-1.7-.28-2.52-.35c-.82-.07-1.59-.11-2.3-.11h-1.72c-3.07,0-5.87-.54-8.39-1.61-2.52-1.07-4.68-2.56-6.49-4.48-1.8-1.91-3.21-4.18-4.21-6.81s-1.5-5.48-1.5-8.55c0-4.22.85-7.99,2.55-11.33,1.7-3.34,3.97-6.18,6.81-8.52,2.84-2.34,6.1-4.14,9.78-5.39,3.68-1.25,7.48-1.88,11.42-1.88,1.75,0,3.55.06,5.41.19,1.86.13,3.71.35,5.55.67,1.84.32,3.63.73,5.39,1.23,1.75.5,3.41,1.13,4.98,1.88l-2.04,21.76c-2.43-.82-4.98-1.51-7.64-2.06-2.66-.55-5.26-.83-7.8-.83-.46,0-1.06,0-1.79.03-.73.02-1.5.07-2.3.16-.8.09-1.62.22-2.44.4-.82.18-1.55.42-2.2.72-.64.3-1.16.71-1.55,1.21-.39.5-.57,1.09-.54,1.77.04.79.33,1.42.88,1.9s1.27.86,2.14,1.13c.88.27,1.84.46,2.89.56,1.05.11,2.1.17,3.13.19,1.04.02,2,.02,2.89,0,.89-.02,1.62,0,2.2.08,2.86.18,5.43.79,7.72,1.82,2.29,1.04,4.22,2.41,5.81,4.13s2.8,3.76,3.64,6.14c.84,2.38,1.26,4.99,1.26,7.85Z" fill="url(#Naamloos_verloop_10)" stroke-width="0"/>
        <path d="M346.14,174.98l-.52,22.01-15.47.62-3.95,49.21-21.91,1.14.1-49.21-15.47.83.62-24.5,56.58-.1Z" fill="url(#Naamloos_verloop_10)" stroke-width="0"/>
        <path d="M388.03,177.79c-.17,2.62-.32,5.21-.46,7.77-.14,2.56-.32,5.15-.54,7.77l-17.71.92-.42,5.26h12.45l-.92,12.95-12.53.42-.42,6.1h17.71c-.17,3.06-.34,6.11-.52,9.13-.18,3.02-.34,6.05-.48,9.08l-36.01.84,1.34-60.23h38.51Z" fill="url(#Naamloos_verloop_10)" stroke-width="0"/>
        <path d="M454.62,200.72c0,2.86-.25,5.46-.74,7.79-.5,2.33-1.27,4.47-2.34,6.41-1.06,1.94-2.44,3.74-4.13,5.39-1.69,1.65-3.72,3.23-6.11,4.73l13.1,23.33-24.76,4.84-8.47-23.44-6.82.22-.99,22.89h-23.66c.18-8.36.36-16.69.52-24.98.17-8.29.36-16.62.58-24.98.07-4.22.15-8.4.22-12.55.07-4.15.22-8.33.44-12.55,2.57-.95,5.1-1.74,7.59-2.37,2.49-.62,5-1.11,7.51-1.46,2.51-.35,5.06-.59,7.65-.72,2.59-.13,5.24-.19,7.95-.19,4.18,0,8.23.58,12.13,1.73,3.91,1.16,7.36,2.89,10.37,5.2s5.42,5.19,7.24,8.64c1.82,3.45,2.72,7.47,2.72,12.05ZM429.97,202.48c0-1.54-.21-2.95-.63-4.24-.42-1.28-1.04-2.39-1.87-3.33-.83-.94-1.85-1.67-3.08-2.2-1.23-.53-2.67-.8-4.32-.8-.73,0-1.45.05-2.15.14-.7.09-1.38.23-2.04.41l-.88,20.47h1.32c1.58,0,3.18-.2,4.82-.61,1.63-.4,3.1-1.03,4.4-1.87,1.3-.84,2.37-1.93,3.19-3.25.83-1.32,1.24-2.9,1.24-4.73Z" fill="url(#Naamloos_verloop_10)" stroke-width="0"/>
        <path d="M564.9,212.78c0,6.17-1.15,12.06-3.44,17.66-2.29,5.6-5.73,10.51-10.32,14.73l8.4,9.99-22.29,14.37-5.24-14.37c-1.54.33-3.1.57-4.66.73-1.56.16-3.14.24-4.72.24-3.9,0-7.63-.49-11.2-1.46s-6.92-2.34-10.05-4.11c-3.13-1.77-5.97-3.91-8.52-6.42-2.56-2.52-4.76-5.32-6.61-8.4-1.85-3.08-3.27-6.42-4.26-10.02-1-3.59-1.49-7.34-1.49-11.23s.48-7.6,1.43-11.23c.95-3.63,2.31-7.05,4.08-10.26,1.77-3.21,3.9-6.14,6.39-8.8,2.5-2.66,5.29-4.95,8.37-6.88,3.08-1.93,6.41-3.42,9.99-4.48,3.57-1.06,7.33-1.58,11.26-1.58,6.29,0,12.07.95,17.32,2.86,5.26,1.91,9.77,4.65,13.55,8.22,3.78,3.57,6.72,7.93,8.83,13.06,2.11,5.14,3.17,10.93,3.17,17.38ZM535.31,214.48c0-1.87-.27-3.68-.82-5.45-.55-1.77-1.35-3.33-2.4-4.69-1.06-1.36-2.38-2.44-3.96-3.26-1.58-.81-3.41-1.22-5.48-1.22s-3.86.36-5.48,1.07c-1.62.71-3.01,1.7-4.17,2.95-1.16,1.26-2.05,2.74-2.68,4.44-.63,1.7-.94,3.55-.94,5.54,0,1.87.27,3.7.82,5.51.55,1.81,1.35,3.43,2.41,4.87,1.05,1.44,2.38,2.61,3.96,3.5,1.58.89,3.41,1.34,5.48,1.34s3.81-.4,5.45-1.19c1.64-.79,3.04-1.86,4.2-3.2,1.16-1.34,2.05-2.89,2.68-4.66.63-1.77.94-3.62.94-5.57Z" fill="url(#Naamloos_verloop_10)" stroke-width="0"/>
        <path d="M630.52,191.47c0,2.55-.12,5.35-.36,8.42-.24,3.06-.64,6.23-1.19,9.5-.55,3.27-1.26,6.58-2.14,9.94-.88,3.36-1.97,6.58-3.28,9.68-1.31,3.1-2.83,6-4.57,8.7-1.74,2.7-3.74,5.06-5.99,7.08s-4.78,3.6-7.57,4.75c-2.79,1.15-5.89,1.73-9.3,1.73-4,0-7.46-.65-10.41-1.94-2.94-1.29-5.47-3.03-7.57-5.22-2.1-2.19-3.82-4.73-5.16-7.64-1.34-2.91-2.39-5.99-3.15-9.25-.76-3.25-1.28-6.58-1.58-9.97-.29-3.39-.44-6.65-.44-9.79,0-4.82.24-9.63.72-14.44.48-4.8,1.17-9.6,2.07-14.38l24.17.93c-.93,5.41-1.73,10.84-2.4,16.29-.67,5.46-1.01,10.94-1.01,16.45,0,.59.03,1.46.08,2.61.05,1.15.15,2.44.28,3.87.14,1.43.33,2.89.59,4.39.26,1.5.61,2.87,1.06,4.11.45,1.24.99,2.26,1.63,3.05.64.79,1.39,1.19,2.25,1.19,1,0,1.89-.47,2.69-1.42.79-.95,1.49-2.21,2.09-3.8.6-1.58,1.13-3.41,1.58-5.47.45-2.07.83-4.22,1.14-6.46.31-2.24.56-4.48.75-6.71.19-2.24.34-4.32.46-6.25.12-1.93.2-3.63.23-5.11.03-1.48.05-2.58.05-3.31,0-2.69-.04-5.36-.13-8.03-.09-2.67-.21-5.33-.39-7.98h24.17c.41,4.75.62,9.57.62,14.46Z" fill="url(#Naamloos_verloop_10)" stroke-width="0"/>
        <path d="M662.67,176.97l-5.7,70.63-21.88,1.14v-70.31l27.59-1.45Z" fill="url(#Naamloos_verloop_10)" stroke-width="0"/>
        <path d="M722.42,198.24l-27.89,37.63h26.91l-.37,25.82-54.31,2.19-2.44-23.87,31.78-41.4-29.1,2.19-.24-24.48h54.56l1.1,21.92Z" fill="url(#Naamloos_verloop_10)" stroke-width="0"/>
      </g>
    </g>
  </g>
</svg>