<?xml version="1.0" encoding="UTF-8"?>
<svg id="Laag_1" data-name="Laag 1" xmlns="http://www.w3.org/2000/svg" xmlns:xlink="http://www.w3.org/1999/xlink" viewBox="0 0 800 600">
  <defs>
    <linearGradient id="Naamloos_verloop_24" data-name="Naamloos verloop 24" x1="304.01" y1="153.01" x2="538.03" y2="387.03" gradientTransform="translate(-20.07 -1.69) scale(1 .95)" gradientUnits="userSpaceOnUse">
      <stop offset=".11" stop-color="#00185b"/>
      <stop offset=".65" stop-color="#00071d"/>
      <stop offset=".95" stop-color="#000"/>
    </linearGradient>
    <linearGradient id="Naamloos_verloop_24-2" data-name="Naamloos verloop 24" x1="304.39" y1="246.25" x2="538.41" y2="480.27" gradientTransform="translate(-66.75 117.86) scale(1.01 .13)" xlink:href="#Naamloos_verloop_24"/>
    <linearGradient id="Naamloos_verloop_29" data-name="Naamloos verloop 29" x1="450.11" y1="-1013.49" x2="397.35" y2="-777.73" gradientTransform="translate(-76.34 18.74) scale(1.01 -.13)" gradientUnits="userSpaceOnUse">
      <stop offset=".05" stop-color="#000"/>
      <stop offset=".35" stop-color="#00071d"/>
      <stop offset=".89" stop-color="#00185b"/>
    </linearGradient>
    <radialGradient id="Naamloos_verloop_163" data-name="Naamloos verloop 163" cx="657.99" cy="328.05" fx="657.99" fy="328.05" r="7.41" gradientTransform="translate(-80.03 134.99) rotate(-30.34)" gradientUnits="userSpaceOnUse">
      <stop offset="0" stop-color="#f7f2de"/>
      <stop offset=".05" stop-color="#ede6ce"/>
      <stop offset=".2" stop-color="#d4c7a5"/>
      <stop offset=".35" stop-color="#bfae82"/>
      <stop offset=".51" stop-color="#af9a68"/>
      <stop offset=".67" stop-color="#a48c55"/>
      <stop offset=".83" stop-color="#9d8349"/>
      <stop offset="1" stop-color="#9b8146"/>
    </radialGradient>
    <radialGradient id="Naamloos_verloop_163-2" data-name="Naamloos verloop 163" cx="642.24" cy="335.69" fx="642.24" fy="335.69" r="9.57" gradientTransform="translate(1.58 -235.36)" xlink:href="#Naamloos_verloop_163"/>
    <radialGradient id="Naamloos_verloop_163-3" data-name="Naamloos verloop 163" cx="642.2" cy="320.64" fx="633.32" fy="308.15" r="23.38" gradientTransform="translate(186.18 -471.86) rotate(24.64)" xlink:href="#Naamloos_verloop_163"/>
    <radialGradient id="Naamloos_verloop_163-4" data-name="Naamloos verloop 163" cx="647.14" cy="304.23" fx="647.14" fy="304.23" r="10.27" gradientTransform="translate(-14.98 -233.52)" xlink:href="#Naamloos_verloop_163"/>
    <radialGradient id="Naamloos_verloop_163-5" data-name="Naamloos verloop 163" cx="619.96" cy="318.42" fx="619.96" fy="318.42" r="11.57" gradientTransform="translate(-4.09 -221.74)" xlink:href="#Naamloos_verloop_163"/>
    <radialGradient id="Naamloos_verloop_163-6" data-name="Naamloos verloop 163" cx="65.25" cy="604.09" fx="65.25" fy="604.09" gradientTransform="translate(273.94 574.68) rotate(-130.29) scale(1.06 1.05) skewX(6.34)" xlink:href="#Naamloos_verloop_163"/>
    <radialGradient id="Naamloos_verloop_163-7" data-name="Naamloos verloop 163" cx="49.49" cy="611.73" fx="49.49" fy="611.73" r="9.57" gradientTransform="translate(273.94 574.68) rotate(-130.29) scale(1.06 1.05) skewX(6.34)" xlink:href="#Naamloos_verloop_163"/>
    <radialGradient id="Naamloos_verloop_163-8" data-name="Naamloos verloop 163" cx="49.46" cy="596.68" fx="40.57" fy="584.19" r="23.38" gradientTransform="translate(273.94 574.68) rotate(-130.29) scale(1.06 1.05) skewX(6.34)" xlink:href="#Naamloos_verloop_163"/>
    <radialGradient id="Naamloos_verloop_163-9" data-name="Naamloos verloop 163" cx="54.39" cy="580.27" fx="54.39" fy="580.27" r="10.27" gradientTransform="translate(273.94 574.68) rotate(-130.29) scale(1.06 1.05) skewX(6.34)" xlink:href="#Naamloos_verloop_163"/>
    <radialGradient id="Naamloos_verloop_163-10" data-name="Naamloos verloop 163" cx="27.22" cy="594.46" fx="27.22" fy="594.46" r="11.57" gradientTransform="translate(273.94 574.68) rotate(-130.29) scale(1.06 1.05) skewX(6.34)" xlink:href="#Naamloos_verloop_163"/>
    <radialGradient id="Naamloos_verloop_163-11" data-name="Naamloos verloop 163" cx="587.54" cy="-87.17" fx="587.54" fy="-87.17" r="7.41" gradientTransform="translate(173.84 -113.99) rotate(32.77)" xlink:href="#Naamloos_verloop_163"/>
    <radialGradient id="Naamloos_verloop_163-12" data-name="Naamloos verloop 163" cx="571.78" cy="-79.53" fx="571.78" fy="-79.53" r="9.57" gradientTransform="translate(618.14 -443.16) rotate(90)" xlink:href="#Naamloos_verloop_163"/>
    <radialGradient id="Naamloos_verloop_163-13" data-name="Naamloos verloop 163" cx="571.75" cy="-94.58" fx="562.87" fy="-107.07" r="23.38" gradientTransform="translate(858.23 -443.16) rotate(114.64)" xlink:href="#Naamloos_verloop_163"/>
    <radialGradient id="Naamloos_verloop_163-14" data-name="Naamloos verloop 163" cx="576.68" cy="-110.99" fx="576.68" fy="-110.99" r="10.27" gradientTransform="translate(607.83 -471.86) rotate(90)" xlink:href="#Naamloos_verloop_163"/>
    <radialGradient id="Naamloos_verloop_163-15" data-name="Naamloos verloop 163" cx="549.51" cy="-96.8" fx="549.51" fy="-96.8" r="11.57" gradientTransform="translate(591.49 -447.47) rotate(90)" xlink:href="#Naamloos_verloop_163"/>
    <radialGradient id="Naamloos_verloop_163-16" data-name="Naamloos verloop 163" cx="172.32" cy="-178.93" fx="172.32" fy="-178.93" r="7.41" gradientTransform="translate(422.17 1.57) rotate(80.88)" xlink:href="#Naamloos_verloop_163"/>
    <radialGradient id="Naamloos_verloop_163-17" data-name="Naamloos verloop 163" cx="156.56" cy="-171.28" fx="156.56" fy="-171.28" r="9.57" gradientTransform="translate(444.81 -27.55) rotate(90)" xlink:href="#Naamloos_verloop_163"/>
    <radialGradient id="Naamloos_verloop_163-18" data-name="Naamloos verloop 163" cx="156.53" cy="-186.33" fx="147.65" fy="-198.83" r="23.38" gradientTransform="translate(526.86 -93.38) rotate(114.64)" xlink:href="#Naamloos_verloop_163"/>
    <radialGradient id="Naamloos_verloop_163-19" data-name="Naamloos verloop 163" cx="161.47" cy="-202.74" fx="161.47" fy="-202.74" r="10.27" gradientTransform="translate(445.19 -32.6) rotate(90)" xlink:href="#Naamloos_verloop_163"/>
    <radialGradient id="Naamloos_verloop_163-20" data-name="Naamloos verloop 163" cx="134.29" cy="-188.56" fx="134.29" fy="-188.56" r="11.57" gradientTransform="translate(441.07 -30.01) rotate(90)" xlink:href="#Naamloos_verloop_163"/>
    <radialGradient id="Naamloos_verloop_163-21" data-name="Naamloos verloop 163" cx="711.56" cy="189.35" fx="711.56" fy="189.35" r="7.41" gradientTransform="matrix(1,0,0,1,0,0)" xlink:href="#Naamloos_verloop_163"/>
    <radialGradient id="Naamloos_verloop_163-22" data-name="Naamloos verloop 163" cx="695.8" cy="197" fx="695.8" fy="197" r="9.57" gradientTransform="matrix(1,0,0,1,0,0)" xlink:href="#Naamloos_verloop_163"/>
    <radialGradient id="Naamloos_verloop_163-23" data-name="Naamloos verloop 163" cx="695.77" cy="181.95" fx="686.89" fy="169.45" r="23.38" gradientTransform="translate(139.24 -273.55) rotate(24.64)" xlink:href="#Naamloos_verloop_163"/>
    <radialGradient id="Naamloos_verloop_163-24" data-name="Naamloos verloop 163" cx="700.7" cy="165.53" fx="700.7" fy="165.53" r="10.27" gradientTransform="matrix(1,0,0,1,0,0)" xlink:href="#Naamloos_verloop_163"/>
    <radialGradient id="Naamloos_verloop_163-25" data-name="Naamloos verloop 163" cx="673.53" cy="179.72" fx="673.53" fy="179.72" r="11.57" gradientTransform="matrix(1,0,0,1,0,0)" xlink:href="#Naamloos_verloop_163"/>
    <radialGradient id="Naamloos_verloop_163-26" data-name="Naamloos verloop 163" cx="261.24" cy="-165.25" fx="261.24" fy="-165.25" r="7.41" gradientTransform="translate(286.78 7.3) rotate(59.66)" xlink:href="#Naamloos_verloop_163"/>
    <radialGradient id="Naamloos_verloop_163-27" data-name="Naamloos verloop 163" cx="245.48" cy="-157.6" fx="245.48" fy="-157.6" r="9.57" gradientTransform="translate(389.18 -105.92) rotate(90)" xlink:href="#Naamloos_verloop_163"/>
    <radialGradient id="Naamloos_verloop_163-28" data-name="Naamloos verloop 163" cx="245.45" cy="-172.65" fx="236.57" fy="-185.15" r="23.38" gradientTransform="translate(505.18 -163.15) rotate(114.64)" xlink:href="#Naamloos_verloop_163"/>
    <radialGradient id="Naamloos_verloop_163-29" data-name="Naamloos verloop 163" cx="250.38" cy="-189.07" fx="250.38" fy="-189.07" r="10.27" gradientTransform="translate(387.35 -122.48) rotate(90)" xlink:href="#Naamloos_verloop_163"/>
    <radialGradient id="Naamloos_verloop_163-30" data-name="Naamloos verloop 163" cx="223.21" cy="-174.88" fx="223.21" fy="-174.88" r="11.57" gradientTransform="translate(375.57 -111.59) rotate(90)" xlink:href="#Naamloos_verloop_163"/>
    <radialGradient id="Naamloos_verloop_163-31" data-name="Naamloos verloop 163" cx="607.79" cy="129.98" fx="607.79" fy="129.98" r="7.41" gradientTransform="translate(0 -25.49) scale(1 1.1)" xlink:href="#Naamloos_verloop_163"/>
    <radialGradient id="Naamloos_verloop_163-32" data-name="Naamloos verloop 163" cx="592.04" cy="137.63" fx="592.04" fy="137.63" r="9.57" gradientTransform="translate(0 -25.49) scale(1 1.1)" xlink:href="#Naamloos_verloop_163"/>
    <radialGradient id="Naamloos_verloop_163-33" data-name="Naamloos verloop 163" cx="592" cy="122.58" fx="583.12" fy="110.08" r="23.38" gradientTransform="translate(0 -25.49) scale(1 1.1)" xlink:href="#Naamloos_verloop_163"/>
    <radialGradient id="Naamloos_verloop_163-34" data-name="Naamloos verloop 163" cx="596.94" cy="106.16" fx="596.94" fy="106.16" r="10.27" gradientTransform="translate(0 -25.49) scale(1 1.1)" xlink:href="#Naamloos_verloop_163"/>
    <radialGradient id="Naamloos_verloop_163-35" data-name="Naamloos verloop 163" cx="569.76" cy="120.35" fx="569.76" fy="120.35" r="11.57" gradientTransform="translate(0 -25.49) scale(1 1.1)" xlink:href="#Naamloos_verloop_163"/>
    <radialGradient id="Naamloos_verloop_163-36" data-name="Naamloos verloop 163" cx="613.12" cy="148.67" fx="613.12" fy="148.67" r="7.41" gradientTransform="matrix(1,0,0,1,0,0)" xlink:href="#Naamloos_verloop_163"/>
    <radialGradient id="Naamloos_verloop_163-37" data-name="Naamloos verloop 163" cx="597.36" cy="156.32" fx="597.36" fy="156.32" r="9.57" gradientTransform="matrix(1,0,0,1,0,0)" xlink:href="#Naamloos_verloop_163"/>
    <radialGradient id="Naamloos_verloop_163-38" data-name="Naamloos verloop 163" cx="597.33" cy="141.27" fx="588.45" fy="128.77" r="23.38" gradientTransform="translate(113.31 -236.2) rotate(24.64)" xlink:href="#Naamloos_verloop_163"/>
    <radialGradient id="Naamloos_verloop_163-39" data-name="Naamloos verloop 163" cx="602.26" cy="124.86" fx="602.26" fy="124.86" r="10.27" gradientTransform="matrix(1,0,0,1,0,0)" xlink:href="#Naamloos_verloop_163"/>
    <radialGradient id="Naamloos_verloop_163-40" data-name="Naamloos verloop 163" cx="575.09" cy="139.04" fx="575.09" fy="139.04" r="11.57" gradientTransform="matrix(1,0,0,1,0,0)" xlink:href="#Naamloos_verloop_163"/>
    <radialGradient id="Naamloos_verloop_163-41" data-name="Naamloos verloop 163" cx="730.15" cy="218.59" fx="730.15" fy="218.59" gradientTransform="translate(-10.38 -67.63) scale(1.04 1.2)" xlink:href="#Naamloos_verloop_163"/>
    <radialGradient id="Naamloos_verloop_163-42" data-name="Naamloos verloop 163" cx="714.4" cy="226.23" fx="714.4" fy="226.23" r="9.57" gradientTransform="translate(-10.38 -67.63) scale(1.04 1.2)" xlink:href="#Naamloos_verloop_163"/>
    <radialGradient id="Naamloos_verloop_163-43" data-name="Naamloos verloop 163" cx="714.36" cy="211.18" fx="705.48" fy="198.69" r="23.38" gradientTransform="translate(-10.38 -67.63) scale(1.04 1.2)" xlink:href="#Naamloos_verloop_163"/>
    <radialGradient id="Naamloos_verloop_163-44" data-name="Naamloos verloop 163" cx="719.3" cy="194.77" fx="719.3" fy="194.77" r="10.27" gradientTransform="translate(-10.38 -67.63) scale(1.04 1.2)" xlink:href="#Naamloos_verloop_163"/>
    <radialGradient id="Naamloos_verloop_163-45" data-name="Naamloos verloop 163" cx="692.12" cy="208.96" fx="692.12" fy="208.96" r="11.57" gradientTransform="translate(-10.38 -67.63) scale(1.04 1.2)" xlink:href="#Naamloos_verloop_163"/>
    <radialGradient id="Naamloos_verloop_163-46" data-name="Naamloos verloop 163" cx="683.85" cy="123.42" fx="683.85" fy="123.42" r="7.41" gradientTransform="matrix(1,0,0,1,0,0)" xlink:href="#Naamloos_verloop_163"/>
    <radialGradient id="Naamloos_verloop_163-47" data-name="Naamloos verloop 163" cx="668.09" cy="131.06" fx="668.09" fy="131.06" r="9.57" gradientTransform="matrix(1,0,0,1,0,0)" xlink:href="#Naamloos_verloop_163"/>
    <radialGradient id="Naamloos_verloop_163-48" data-name="Naamloos verloop 163" cx="668.06" cy="116.01" fx="659.18" fy="103.52" r="23.38" gradientTransform="translate(109.22 -268) rotate(24.64)" xlink:href="#Naamloos_verloop_163"/>
    <radialGradient id="Naamloos_verloop_163-49" data-name="Naamloos verloop 163" cx="672.99" cy="99.6" fx="672.99" fy="99.6" r="10.27" gradientTransform="matrix(1,0,0,1,0,0)" xlink:href="#Naamloos_verloop_163"/>
    <radialGradient id="Naamloos_verloop_163-50" data-name="Naamloos verloop 163" cx="645.82" cy="113.79" fx="645.82" fy="113.79" r="11.57" gradientTransform="matrix(1,0,0,1,0,0)" xlink:href="#Naamloos_verloop_163"/>
    <radialGradient id="Naamloos_verloop_163-51" data-name="Naamloos verloop 163" cx="665.16" cy="166.35" fx="665.16" fy="166.35" gradientTransform="matrix(1,0,0,1,0,0)" xlink:href="#Naamloos_verloop_163"/>
    <radialGradient id="Naamloos_verloop_163-52" data-name="Naamloos verloop 163" cx="649.4" cy="174" fx="649.4" fy="174" r="9.57" gradientTransform="matrix(1,0,0,1,0,0)" xlink:href="#Naamloos_verloop_163"/>
    <radialGradient id="Naamloos_verloop_163-53" data-name="Naamloos verloop 163" cx="649.37" cy="158.95" fx="640.48" fy="146.45" r="23.38" gradientTransform="translate(125.42 -256.29) rotate(24.64)" xlink:href="#Naamloos_verloop_163"/>
    <radialGradient id="Naamloos_verloop_163-54" data-name="Naamloos verloop 163" cx="654.3" cy="142.54" fx="654.3" fy="142.54" r="10.27" gradientTransform="matrix(1,0,0,1,0,0)" xlink:href="#Naamloos_verloop_163"/>
    <radialGradient id="Naamloos_verloop_163-55" data-name="Naamloos verloop 163" cx="627.13" cy="156.72" fx="627.13" fy="156.72" r="11.57" gradientTransform="matrix(1,0,0,1,0,0)" xlink:href="#Naamloos_verloop_163"/>
    <radialGradient id="Naamloos_verloop_163-56" data-name="Naamloos verloop 163" cx="684.15" cy="463.23" fx="684.15" fy="463.23" gradientTransform="translate(-118.07 233.71) rotate(-40.29)" xlink:href="#Naamloos_verloop_163"/>
    <radialGradient id="Naamloos_verloop_163-57" data-name="Naamloos verloop 163" cx="668.39" cy="470.88" fx="668.39" fy="470.88" r="9.57" gradientTransform="translate(27.86 -310.28)" xlink:href="#Naamloos_verloop_163"/>
    <radialGradient id="Naamloos_verloop_163-58" data-name="Naamloos verloop 163" cx="668.36" cy="455.83" fx="659.48" fy="443.34" r="23.38" gradientTransform="translate(269.08 -543.86) rotate(24.64)" xlink:href="#Naamloos_verloop_163"/>
    <radialGradient id="Naamloos_verloop_163-59" data-name="Naamloos verloop 163" cx="673.29" cy="439.42" fx="673.29" fy="439.42" r="10.27" gradientTransform="translate(6.35 -305.99)" xlink:href="#Naamloos_verloop_163"/>
    <radialGradient id="Naamloos_verloop_163-60" data-name="Naamloos verloop 163" cx="646.12" cy="453.61" fx="646.12" fy="453.61" r="11.57" gradientTransform="translate(21.98 -291.78)" xlink:href="#Naamloos_verloop_163"/>
    <radialGradient id="Naamloos_verloop_163-61" data-name="Naamloos verloop 163" cx="773.62" cy="142.93" fx="773.62" fy="142.93" r="7.41" gradientTransform="translate(22.57 26.94) scale(.91)" xlink:href="#Naamloos_verloop_163"/>
    <radialGradient id="Naamloos_verloop_163-62" data-name="Naamloos verloop 163" cx="757.86" cy="150.57" fx="757.86" fy="150.57" r="9.57" gradientTransform="translate(22.57 26.94) scale(.91)" xlink:href="#Naamloos_verloop_163"/>
    <radialGradient id="Naamloos_verloop_163-63" data-name="Naamloos verloop 163" cx="757.83" cy="135.52" fx="748.95" fy="123.03" r="23.38" gradientTransform="translate(134.85 -247.46) rotate(24.32) scale(.91)" xlink:href="#Naamloos_verloop_163"/>
    <radialGradient id="Naamloos_verloop_163-64" data-name="Naamloos verloop 163" cx="762.76" cy="119.11" fx="762.76" fy="119.11" r="10.27" gradientTransform="translate(22.57 26.94) scale(.91)" xlink:href="#Naamloos_verloop_163"/>
    <radialGradient id="Naamloos_verloop_163-65" data-name="Naamloos verloop 163" cx="735.59" cy="133.3" fx="735.59" fy="133.3" r="11.57" gradientTransform="translate(22.57 26.94) scale(.91)" xlink:href="#Naamloos_verloop_163"/>
    <linearGradient id="Naamloos_verloop_154" data-name="Naamloos verloop 154" x1="507.63" y1="180.74" x2="699.85" y2="291.72" gradientUnits="userSpaceOnUse">
      <stop offset=".06" stop-color="#fff"/>
      <stop offset=".28" stop-color="#e8e4e1"/>
      <stop offset=".77" stop-color="#ada195"/>
      <stop offset=".89" stop-color="#9f9082"/>
    </linearGradient>
    <linearGradient id="Naamloos_verloop_168" data-name="Naamloos verloop 168" x1="87.63" y1="180.99" x2="260.33" y2="272.26" gradientTransform="translate(10.06 -15.04) scale(.91 1.01)" gradientUnits="userSpaceOnUse">
      <stop offset="0" stop-color="#96a4ae"/>
      <stop offset=".06" stop-color="#8998a2"/>
      <stop offset=".24" stop-color="#677784"/>
      <stop offset=".42" stop-color="#4d5e6b"/>
      <stop offset=".61" stop-color="#3a4c5a"/>
      <stop offset=".8" stop-color="#2e4150"/>
      <stop offset="1" stop-color="#2b3e4d"/>
    </linearGradient>
    <linearGradient id="Naamloos_verloop_166" data-name="Naamloos verloop 166" x1="83.1" y1="180.56" x2="255.8" y2="271.83" gradientTransform="translate(10.05 -14.29) scale(.91 1.01)" gradientUnits="userSpaceOnUse">
      <stop offset="0" stop-color="#c3cad1"/>
      <stop offset=".11" stop-color="#a9b2bb"/>
      <stop offset=".28" stop-color="#87939d"/>
      <stop offset=".45" stop-color="#6d7a86"/>
      <stop offset=".63" stop-color="#5a6876"/>
      <stop offset=".81" stop-color="#4e5e6c"/>
      <stop offset="1" stop-color="#4b5b69"/>
    </linearGradient>
    <linearGradient id="Naamloos_verloop_24-3" data-name="Naamloos verloop 24" x1="85.49" y1="229.24" x2="227.15" y2="229.24" gradientTransform="translate(33.03 -44.46) rotate(8.71) scale(1 1.07) skewX(1.2)" xlink:href="#Naamloos_verloop_24"/>
    <linearGradient id="Naamloos_verloop_24-4" data-name="Naamloos verloop 24" x1="47.88" y1="226.04" x2="189.53" y2="226.04" gradientTransform="translate(33.15 -14.51) rotate(8.13)" xlink:href="#Naamloos_verloop_24"/>
    <linearGradient id="Naamloos_verloop_168-2" data-name="Naamloos verloop 168" x1="30.93" y1="179.28" x2="211.28" y2="274.59" gradientTransform="matrix(1,0,0,1,0,0)" xlink:href="#Naamloos_verloop_168"/>
    <linearGradient id="Naamloos_verloop_166-2" data-name="Naamloos verloop 166" x1="25.79" y1="179.6" x2="206.15" y2="274.91" gradientTransform="matrix(1,0,0,1,0,0)" xlink:href="#Naamloos_verloop_166"/>
    <linearGradient id="Naamloos_verloop_10" data-name="Naamloos verloop 10" x1="271.11" y1="167.35" x2="511.77" y2="584.2" gradientUnits="userSpaceOnUse">
      <stop offset=".25" stop-color="#da472b"/>
      <stop offset=".38" stop-color="#d23a22"/>
      <stop offset=".56" stop-color="#cb2e1b"/>
      <stop offset=".75" stop-color="#c92b19"/>
    </linearGradient>
  </defs>
  <g id="clapperboard">
    <rect x="258" y="169.43" width="301" height="185.3" transform="translate(-71.7 191.62) rotate(-24.33)" fill="url(#Naamloos_verloop_24)" stroke-width="0"/>
    <g>
      <rect x="213.55" y="153.43" width="302.99" height="25.38" transform="translate(-36.02 165.18) rotate(-24.33)" fill="url(#Naamloos_verloop_24-2)" stroke-width="0"/>
      <polygon points="398.43 164.95 416.88 156.6 398.47 137.07 380.03 145.41 398.43 164.95" fill="#fff" stroke-width="0"/>
      <polygon points="437.56 147.25 456.01 138.91 437.6 119.38 419.16 127.72 437.56 147.25" fill="#fff" stroke-width="0"/>
      <polygon points="319.72 200.54 338.17 192.2 319.76 172.67 301.32 181.01 319.72 200.54" fill="#fff" stroke-width="0"/>
      <polygon points="358.85 182.85 377.3 174.5 358.89 154.97 340.45 163.31 358.85 182.85" fill="#fff" stroke-width="0"/>
      <polygon points="242.64 235.4 261.09 227.06 242.69 207.53 224.24 215.87 242.64 235.4" fill="#fff" stroke-width="0"/>
      <polygon points="281.77 217.7 300.22 209.36 281.82 189.83 263.37 198.17 281.77 217.7" fill="#fff" stroke-width="0"/>
      <polygon points="476.24 129.75 494.69 121.41 476.29 101.88 457.84 110.22 476.24 129.75" fill="#fff" stroke-width="0"/>
    </g>
    <g>
      <rect x="196.98" y="121.62" width="302.99" height="25.38" transform="translate(-20.45 192.36) rotate(-30.02)" fill="url(#Naamloos_verloop_29)" stroke-width="0"/>
      <polygon points="368.88 107.86 386.41 97.74 391.56 124.07 374.03 134.2 368.88 107.86" fill="#fff" stroke-width="0"/>
      <polygon points="406.07 86.38 423.59 76.25 428.74 102.59 411.21 112.71 406.07 86.38" fill="#fff" stroke-width="0"/>
      <polygon points="294.09 151.08 311.61 140.95 316.76 167.29 299.23 177.42 294.09 151.08" fill="#fff" stroke-width="0"/>
      <polygon points="331.27 129.59 348.8 119.47 353.94 145.8 336.42 155.93 331.27 129.59" fill="#fff" stroke-width="0"/>
      <polygon points="220.84 193.4 238.37 183.28 243.51 209.61 225.99 219.74 220.84 193.4" fill="#fff" stroke-width="0"/>
      <polygon points="258.02 171.92 275.55 161.79 280.7 188.13 263.17 198.25 258.02 171.92" fill="#fff" stroke-width="0"/>
      <polygon points="442.83 65.14 460.35 55.01 465.5 81.35 447.97 91.47 442.83 65.14" fill="#fff" stroke-width="0"/>
    </g>
    <polyline points="253.07 246.14 328.43 212.44 496.99 137.07" fill="#450094" stroke="#fff" stroke-linecap="round" stroke-miterlimit="10" stroke-width="4"/>
    <line x1="350.42" y1="262.08" x2="328.43" y2="212.44" fill="#450094" stroke="#fff" stroke-linecap="round" stroke-miterlimit="10" stroke-width="4"/>
    <line x1="441.22" y1="219.74" x2="419.16" y2="171.87" fill="#450094" stroke="#fff" stroke-linecap="round" stroke-miterlimit="10" stroke-width="4"/>
    <line x1="274.49" y1="295.51" x2="519.21" y2="186.61" fill="#450094" stroke="#fff" stroke-linecap="round" stroke-miterlimit="10" stroke-width="4"/>
    <line x1="289.01" y1="327.54" x2="534.27" y2="217.7" fill="#450094" stroke="#fff" stroke-miterlimit="10" stroke-width="4"/>
    <line x1="303.16" y1="355.83" x2="546.7" y2="246.14" fill="#450094" stroke="#fff" stroke-linecap="round" stroke-miterlimit="10" stroke-width="4"/>
    <line x1="316.76" y1="385.42" x2="559.56" y2="276.08" fill="#450094" stroke="#fff" stroke-linecap="round" stroke-miterlimit="10" stroke-width="4"/>
  </g>
  <g id="popcorn_cup" data-name="popcorn cup">
    <g id="popcorn">
      <g id="popcorn_piece" data-name="popcorn piece">
        <circle cx="653.56" cy="85.78" r="7.41" fill="url(#Naamloos_verloop_163)" stroke-width="0"/>
        <ellipse cx="643.82" cy="100.34" rx="10.25" ry="8.84" transform="translate(37.48 338.92) rotate(-30.34)" fill="url(#Naamloos_verloop_163-2)" stroke-width="0"/>
        <ellipse cx="636.19" cy="87.37" rx="22.85" ry="16.41" transform="translate(199.56 558.24) rotate(-54.98)" fill="url(#Naamloos_verloop_163-3)" stroke-width="0"/>
        <ellipse cx="632.16" cy="70.71" rx="8.87" ry="11.5" transform="translate(50.85 328.97) rotate(-30.34)" fill="url(#Naamloos_verloop_163-4)" stroke-width="0"/>
        <ellipse cx="615.87" cy="96.68" rx="10.74" ry="12.35" transform="translate(35.5 324.3) rotate(-30.34)" fill="url(#Naamloos_verloop_163-5)" stroke-width="0"/>
      </g>
      <g id="popcorn_piece-2" data-name="popcorn piece">
        <path d="M672.37,62.49c-2.97,3.15-7.65,3.01-10.47-.31s-2.69-8.56.28-11.71,7.65-3.01,10.47.31,2.69,8.56-.28,11.71Z" fill="url(#Naamloos_verloop_163-6)" stroke-width="0"/>
        <path d="M690.72,71.71c-3.54,3.76-9.57,3.08-13.47-1.51s-4.18-11.37-.64-15.13,9.57-3.08,13.47,1.51,4.18,11.37.64,15.13Z" fill="url(#Naamloos_verloop_163-7)" stroke-width="0"/>
        <path d="M651.56,65.48c3.38-9.41,15.61-12.78,27.32-7.52,11.71,5.26,18.47,17.15,15.1,26.57s-15.61,12.78-27.32,7.52c-11.71-5.26-18.47-17.15-15.1-26.57Z" fill="url(#Naamloos_verloop_163-8)" stroke-width="0"/>
        <path d="M651.36,76.44c4.61-4.89,11.08-5.64,14.45-1.66s2.37,11.17-2.24,16.06c-4.61,4.89-11.08,5.64-14.45,1.66s-2.37-11.17,2.24-16.06Z" fill="url(#Naamloos_verloop_163-9)" stroke-width="0"/>
        <path d="M679.07,86.06c4.95-5.25,12.27-5.61,16.35-.79s3.38,12.97-1.57,18.22c-4.95,5.25-12.27,5.61-16.35.79s-3.38-12.97,1.57-18.22Z" fill="url(#Naamloos_verloop_163-10)" stroke-width="0"/>
      </g>
      <g id="popcorn_piece-3" data-name="popcorn piece">
        <circle cx="715.06" cy="130.73" r="7.41" fill="url(#Naamloos_verloop_163-11)" stroke-width="0"/>
        <ellipse cx="697.67" cy="128.63" rx="8.84" ry="10.25" transform="translate(211.89 645.64) rotate(-57.23)" fill="url(#Naamloos_verloop_163-12)" stroke-width="0"/>
        <ellipse cx="705.79" cy="115.95" rx="16.41" ry="22.85" transform="translate(491.23 798.26) rotate(-81.87)" fill="url(#Naamloos_verloop_163-13)" stroke-width="0"/>
        <ellipse cx="718.82" cy="104.82" rx="11.5" ry="8.87" transform="translate(241.6 652.5) rotate(-57.23)" fill="url(#Naamloos_verloop_163-14)" stroke-width="0"/>
        <ellipse cx="688.29" cy="102.04" rx="12.35" ry="10.74" transform="translate(229.94 625.56) rotate(-57.23)" fill="url(#Naamloos_verloop_163-15)" stroke-width="0"/>
      </g>
      <g id="popcorn_piece-4" data-name="popcorn piece">
        <circle cx="626.14" cy="143.36" r="7.41" fill="url(#Naamloos_verloop_163-16)" stroke-width="0"/>
        <ellipse cx="616.1" cy="129.01" rx="8.84" ry="10.25" transform="translate(-12.66 99.26) rotate(-9.12)" fill="url(#Naamloos_verloop_163-17)" stroke-width="0"/>
        <ellipse cx="630.95" cy="126.6" rx="16.41" ry="22.85" transform="translate(36.05 372) rotate(-33.76)" fill="url(#Naamloos_verloop_163-18)" stroke-width="0"/>
        <ellipse cx="647.94" cy="128.87" rx="11.5" ry="8.87" transform="translate(-12.23 104.31) rotate(-9.12)" fill="url(#Naamloos_verloop_163-19)" stroke-width="0"/>
        <ellipse cx="629.62" cy="104.28" rx="12.35" ry="10.74" transform="translate(-8.57 101.09) rotate(-9.12)" fill="url(#Naamloos_verloop_163-20)" stroke-width="0"/>
      </g>
      <g id="popcorn_piece-5" data-name="popcorn piece">
        <circle cx="711.56" cy="189.35" r="7.41" fill="url(#Naamloos_verloop_163-21)" stroke-width="0"/>
        <ellipse cx="695.8" cy="197" rx="10.25" ry="8.84" fill="url(#Naamloos_verloop_163-22)" stroke-width="0"/>
        <ellipse cx="695.77" cy="181.95" rx="22.85" ry="16.41" transform="translate(-12.49 306.69) rotate(-24.64)" fill="url(#Naamloos_verloop_163-23)" stroke-width="0"/>
        <ellipse cx="700.7" cy="165.53" rx="8.87" ry="11.5" fill="url(#Naamloos_verloop_163-24)" stroke-width="0"/>
        <ellipse cx="673.53" cy="179.72" rx="10.74" ry="12.35" fill="url(#Naamloos_verloop_163-25)" stroke-width="0"/>
      </g>
      <g id="popcorn_piece-6" data-name="popcorn piece">
        <circle cx="561.34" cy="149.3" r="7.41" fill="url(#Naamloos_verloop_163-26)" stroke-width="0"/>
        <ellipse cx="546.79" cy="139.56" rx="8.84" ry="10.25" transform="translate(4.38 295.28) rotate(-30.34)" fill="url(#Naamloos_verloop_163-27)" stroke-width="0"/>
        <ellipse cx="559.76" cy="131.93" rx="16.41" ry="22.85" transform="translate(130.49 514.64) rotate(-54.98)" fill="url(#Naamloos_verloop_163-28)" stroke-width="0"/>
        <ellipse cx="576.42" cy="127.9" rx="11.5" ry="8.87" transform="translate(14.33 308.65) rotate(-30.34)" fill="url(#Naamloos_verloop_163-29)" stroke-width="0"/>
        <ellipse cx="550.45" cy="111.61" rx="12.35" ry="10.74" transform="translate(19 293.3) rotate(-30.34)" fill="url(#Naamloos_verloop_163-30)" stroke-width="0"/>
      </g>
      <g id="popcorn_piece-7" data-name="popcorn piece">
        <ellipse cx="607.79" cy="117.13" rx="7.41" ry="8.13" fill="url(#Naamloos_verloop_163-31)" stroke-width="0"/>
        <ellipse cx="592.04" cy="125.52" rx="10.25" ry="9.7" fill="url(#Naamloos_verloop_163-32)" stroke-width="0"/>
        <path d="M612.78,98.55c3.78,9.04-2.46,21.05-13.93,26.82s-23.84,3.13-27.62-5.91,2.46-21.05,13.93-26.82,23.84-3.13,27.62,5.91Z" fill="url(#Naamloos_verloop_163-33)" stroke-width="0"/>
        <ellipse cx="596.94" cy="91" rx="8.87" ry="12.62" fill="url(#Naamloos_verloop_163-34)" stroke-width="0"/>
        <ellipse cx="569.76" cy="106.56" rx="10.74" ry="13.55" fill="url(#Naamloos_verloop_163-35)" stroke-width="0"/>
      </g>
      <g id="popcorn_piece-8" data-name="popcorn piece">
        <circle cx="613.12" cy="148.67" r="7.41" fill="url(#Naamloos_verloop_163-36)" stroke-width="0"/>
        <ellipse cx="597.36" cy="156.32" rx="10.25" ry="8.84" fill="url(#Naamloos_verloop_163-37)" stroke-width="0"/>
        <ellipse cx="597.33" cy="141.27" rx="22.85" ry="16.41" transform="translate(-4.5 261.94) rotate(-24.64)" fill="url(#Naamloos_verloop_163-38)" stroke-width="0"/>
        <ellipse cx="602.26" cy="124.86" rx="8.87" ry="11.5" fill="url(#Naamloos_verloop_163-39)" stroke-width="0"/>
        <ellipse cx="575.09" cy="139.04" rx="10.74" ry="12.35" fill="url(#Naamloos_verloop_163-40)" stroke-width="0"/>
      </g>
      <g id="popcorn_piece-9" data-name="popcorn piece">
        <ellipse cx="747.35" cy="194.3" rx="7.68" ry="8.87" fill="url(#Naamloos_verloop_163-41)" stroke-width="0"/>
        <ellipse cx="731" cy="203.47" rx="10.64" ry="10.59" fill="url(#Naamloos_verloop_163-42)" stroke-width="0"/>
        <path d="M752.52,174.01c3.92,9.87-2.55,22.99-14.45,29.29-11.91,6.31-24.74,3.42-28.66-6.46-3.92-9.87,2.55-22.99,14.45-29.29,11.91-6.31,24.74-3.42,28.66,6.46Z" fill="url(#Naamloos_verloop_163-43)" stroke-width="0"/>
        <ellipse cx="736.09" cy="165.76" rx="9.21" ry="13.78" fill="url(#Naamloos_verloop_163-44)" stroke-width="0"/>
        <ellipse cx="707.89" cy="182.77" rx="11.14" ry="14.8" fill="url(#Naamloos_verloop_163-45)" stroke-width="0"/>
      </g>
      <g id="popcorn_piece-10" data-name="popcorn piece">
        <circle cx="683.85" cy="123.42" r="7.41" fill="url(#Naamloos_verloop_163-46)" stroke-width="0"/>
        <ellipse cx="668.09" cy="131.06" rx="10.25" ry="8.84" fill="url(#Naamloos_verloop_163-47)" stroke-width="0"/>
        <ellipse cx="668.06" cy="116.01" rx="22.85" ry="16.41" transform="translate(12.47 289.13) rotate(-24.64)" fill="url(#Naamloos_verloop_163-48)" stroke-width="0"/>
        <ellipse cx="672.99" cy="99.6" rx="8.87" ry="11.5" fill="url(#Naamloos_verloop_163-49)" stroke-width="0"/>
        <ellipse cx="645.82" cy="113.79" rx="10.74" ry="12.35" fill="url(#Naamloos_verloop_163-50)" stroke-width="0"/>
      </g>
      <g id="popcorn_piece-11" data-name="popcorn piece">
        <circle cx="665.16" cy="166.35" r="7.41" fill="url(#Naamloos_verloop_163-51)" stroke-width="0"/>
        <ellipse cx="649.4" cy="174" rx="10.25" ry="8.84" fill="url(#Naamloos_verloop_163-52)" stroke-width="0"/>
        <ellipse cx="649.37" cy="158.95" rx="22.85" ry="16.41" transform="translate(-7.13 285.25) rotate(-24.64)" fill="url(#Naamloos_verloop_163-53)" stroke-width="0"/>
        <ellipse cx="654.3" cy="142.54" rx="8.87" ry="11.5" fill="url(#Naamloos_verloop_163-54)" stroke-width="0"/>
        <ellipse cx="627.13" cy="156.72" rx="10.74" ry="12.35" fill="url(#Naamloos_verloop_163-55)" stroke-width="0"/>
      </g>
      <g id="popcorn_piece-12" data-name="popcorn piece">
        <circle cx="703.33" cy="144.57" r="7.41" fill="url(#Naamloos_verloop_163-56)" stroke-width="0"/>
        <ellipse cx="696.25" cy="160.6" rx="10.25" ry="8.84" transform="translate(61.34 488.39) rotate(-40.29)" fill="url(#Naamloos_verloop_163-57)" stroke-width="0"/>
        <ellipse cx="686.49" cy="149.14" rx="22.85" ry="16.41" transform="translate(260.61 707.83) rotate(-64.94)" fill="url(#Naamloos_verloop_163-58)" stroke-width="0"/>
        <ellipse cx="679.64" cy="133.43" rx="8.87" ry="11.5" transform="translate(74.97 471.2) rotate(-40.29)" fill="url(#Naamloos_verloop_163-59)" stroke-width="0"/>
        <ellipse cx="668.09" cy="161.83" rx="10.74" ry="12.35" transform="translate(53.86 470.47) rotate(-40.29)" fill="url(#Naamloos_verloop_163-60)" stroke-width="0"/>
      </g>
      <g id="popcorn_piece-13" data-name="popcorn piece">
        <ellipse cx="729.86" cy="156.99" rx="6.77" ry="6.74" fill="url(#Naamloos_verloop_163-61)" stroke-width="0"/>
        <ellipse cx="715.46" cy="163.95" rx="9.37" ry="8.04" fill="url(#Naamloos_verloop_163-62)" stroke-width="0"/>
        <ellipse cx="715.43" cy="150.25" rx="20.88" ry="14.95" transform="translate(1.61 307.98) rotate(-24.32)" fill="url(#Naamloos_verloop_163-63)" stroke-width="0"/>
        <ellipse cx="719.94" cy="135.32" rx="8.11" ry="10.47" fill="url(#Naamloos_verloop_163-64)" stroke-width="0"/>
        <ellipse cx="695.09" cy="148.23" rx="9.82" ry="11.23" fill="url(#Naamloos_verloop_163-65)" stroke-width="0"/>
      </g>
    </g>
    <g id="cup">
      <g>
        <path d="M538.41,127.43l209.28,81.44-82.39,142.05s-9.84,1.54-85.93-26.46c-72.21-26.57-67.95-34.62-67.95-34.62l26.99-162.41Z" fill="url(#Naamloos_verloop_154)" stroke-width="0"/>
        <polygon points="545.7 130.27 515.69 295.31 519.33 297.85 550.87 132.28 545.7 130.27" fill="#cc130e" stroke-width="0"/>
        <polygon points="560.02 135.84 526.01 301.76 532.54 305.11 568.54 139.16 560.02 135.84" fill="#d93e24" stroke-width="0"/>
        <polygon points="582.35 144.53 542.02 309.53 550.87 313.34 593.91 149.03 582.35 144.53" fill="#ca2d1b" stroke-width="0"/>
        <polygon points="610.75 155.58 562.82 318.18 572.47 321.89 623.92 160.71 610.75 155.58" fill="#ae0609" stroke-width="0"/>
        <polygon points="642.11 167.79 585.4 326.67 595.65 330.36 655.65 173.06 642.11 167.79" fill="#9c0105" stroke-width="0"/>
        <polygon points="673.32 179.93 608.42 334.85 617.83 338.06 686.17 184.93 673.32 179.93" fill="#940004" stroke-width="0"/>
        <polygon points="702.31 191.22 630.03 342.06 638.32 344.63 713.36 195.52 702.31 191.22" fill="#8d0103" stroke-width="0"/>
        <polygon points="726.27 200.54 647.77 347.36 654.27 349.04 733.98 203.54 726.27 200.54" fill="#800104" stroke-width="0"/>
        <polygon points="741.45 206.45 660.77 350.43 664.01 350.89 745 207.83 741.45 206.45" fill="#7a2c25" stroke-width="0"/>
        <polygon points="539.53 127.87 511.42 289.84 512.1 291.85 541.09 128.48 539.53 127.87" fill="#d57870" stroke-width="0"/>
      </g>
      <line x1="538.41" y1="127.43" x2="747.69" y2="208.87" fill="#cc130e" stroke="#fff" stroke-linecap="round" stroke-miterlimit="10" stroke-width="4"/>
    </g>
  </g>
  <g id="film_roll" data-name="film roll">
    <g>
      <ellipse cx="168.35" cy="213.51" rx="78.7" ry="131.11" transform="translate(-35.66 33.76) rotate(-10.36)" fill="url(#Naamloos_verloop_168)" stroke-width="0"/>
      <ellipse cx="164.22" cy="213.83" rx="78.7" ry="131.11" transform="translate(-35.78 33.02) rotate(-10.36)" fill="url(#Naamloos_verloop_166)" stroke-width="0"/>
    </g>
    <ellipse cx="155.37" cy="222.58" rx="69.74" ry="119.56" transform="translate(-29.91 24.2) rotate(-8.13)" fill="url(#Naamloos_verloop_24-3)" stroke-width="0"/>
    <ellipse cx="118.7" cy="226.04" rx="69.74" ry="111.5" transform="translate(-30.77 19.05) rotate(-8.13)" fill="url(#Naamloos_verloop_24-4)" stroke-width="0"/>
    <g>
      <path d="M198.52,212.78c-13.02-71.23-58.24-122.63-101-114.81-36.74,6.72-59.71,54.97-57.18,113.61.58-10.02,3.84-17.36,8.68-18.01,6.62-.89,13.69,11.08,15.79,26.74s-1.56,29.07-8.18,29.96c-5.79.78-11.92-8.27-14.77-21.02.5,3.92,1.1,7.87,1.83,11.85,13.02,71.23,58.24,122.63,101,114.81,42.76-7.82,66.86-71.9,53.84-143.12ZM54.86,164.75c-.71-19.59,6.76-35.77,16.69-36.13,9.93-.36,18.57,15.23,19.28,34.82.71,19.59-6.76,35.77-16.69,36.13-9.93.36-18.57-15.23-19.28-34.82ZM85.59,243.64c-3.39.62-7-3.52-8.04-9.25-1.05-5.73.86-10.88,4.25-11.5,3.39-.62,7,3.52,8.04,9.25s-.86,10.88-4.25,11.5ZM84.27,316.76c-7.69,2.24-17.78-9.21-22.54-25.56-4.76-16.35-2.38-31.43,5.31-33.66s17.78,9.21,22.54,25.56c4.76,16.35,2.38,31.43-5.31,33.66ZM139.85,335.29c-13.17,4.61-30.05-9.38-37.72-31.26-7.66-21.87-3.2-43.35,9.96-47.96,13.17-4.61,30.05,9.38,37.72,31.26,7.66,21.87,3.2,43.35-9.96,47.96ZM135.43,239.37c-17.04,1.69-32.9-17.66-35.43-43.22-2.53-25.56,9.23-47.64,26.26-49.33,17.04-1.69,32.9,17.66,35.43,43.22,2.53,25.56-9.23,47.64-26.26,49.33Z" fill="url(#Naamloos_verloop_168-2)" stroke-width="0"/>
      <path d="M193.39,213.1c-13.02-71.23-58.24-122.63-101-114.81-42.76,7.82-66.86,71.9-53.84,143.12,13.02,71.23,58.24,122.63,101,114.81,42.76-7.82,66.86-71.9,53.84-143.12ZM70.71,128.02c9.93-.36,18.57,15.23,19.28,34.82s-6.76,35.77-16.69,36.13c-9.93.36-18.57-15.23-19.28-34.82s6.76-35.77,16.69-36.13ZM84.74,243.05c-3.39.62-7-3.52-8.04-9.25-1.05-5.73.86-10.88,4.25-11.5,3.39-.62,7,3.52,8.04,9.25,1.05,5.73-.86,10.88-4.25,11.5ZM39.99,222.93c-2.1-15.66,1.56-29.07,8.18-29.96s13.69,11.08,15.79,26.74c2.1,15.66-1.56,29.07-8.18,29.96-6.62.89-13.69-11.08-15.79-26.74ZM83.42,316.17c-7.69,2.24-17.78-9.21-22.54-25.56s-2.38-31.43,5.31-33.66c7.69-2.24,17.78,9.21,22.54,25.56,4.76,16.35,2.38,31.43-5.31,33.66ZM139,334.7c-13.17,4.61-30.05-9.38-37.72-31.26-7.66-21.87-3.2-43.35,9.96-47.96,13.17-4.61,30.05,9.38,37.72,31.26,7.66,21.87,3.2,43.35-9.96,47.96ZM134.58,238.77c-17.04,1.69-32.9-17.66-35.43-43.22-2.53-25.56,9.23-47.64,26.26-49.33,17.04-1.69,32.9,17.66,35.43,43.22,2.53,25.56-9.23,47.64-26.26,49.33Z" fill="url(#Naamloos_verloop_166-2)" stroke-width="0"/>
    </g>
  </g>
  <g id="title">
    <g>
      <path d="M129.53,287.11l-.52,22.19-15.6.63-3.98,49.62-22.09,1.15.1-49.62-15.6.84.63-24.71,57.05-.1Z" fill="#000" stroke="#fff" stroke-linecap="round" stroke-linejoin="round" stroke-width="24"/>
      <path d="M182.57,361.95l-21.34,1.02-.17-19.72h-9.82l-.6,18.69h-19.12l1.62-60,20.31.94-1.28,30.64h9.47l.09-32.95,19.46.51,1.37,60.86Z" fill="#000" stroke="#fff" stroke-linecap="round" stroke-linejoin="round" stroke-width="24"/>
      <path d="M233.07,291.7c-.19,3.05-.37,6.07-.54,9.06-.16,2.99-.37,6.01-.63,9.06l-20.66,1.07-.49,6.14h14.52l-1.07,15.1-14.61.49-.49,7.11h20.66c-.19,3.57-.4,7.12-.61,10.64-.21,3.52-.4,7.06-.56,10.6l-41.99.97,1.56-70.25h44.92Z" fill="#000" stroke="#fff" stroke-linecap="round" stroke-linejoin="round" stroke-width="24"/>
      <path d="M407.77,226.73l-8.53,136.15-42.29,1.86.37-71.79-19.11,57.87h-16.32l-14.65-51.75-.19,60.1-42.85,1.3,1.85-128.18,47.67-1.85,18.92,61.4,25.23-65.11h49.9Z" fill="#000" stroke="#fff" stroke-linecap="round" stroke-linejoin="round" stroke-width="24"/>
      <path d="M498.02,313.56c0,4.16-.48,8.17-1.44,12.03-.96,3.86-2.34,7.48-4.15,10.86-1.81,3.38-4,6.48-6.58,9.29-2.58,2.81-5.48,5.22-8.7,7.23-3.22,2.01-6.73,3.58-10.52,4.69-3.79,1.12-7.81,1.68-12.06,1.68s-8.03-.53-11.75-1.58c-3.72-1.05-7.21-2.52-10.45-4.42-3.25-1.9-6.18-4.18-8.81-6.85-2.63-2.67-4.87-5.64-6.72-8.91-1.85-3.27-3.29-6.77-4.32-10.52-1.03-3.75-1.54-7.65-1.54-11.72s.48-7.87,1.44-11.69c.96-3.81,2.34-7.41,4.15-10.8,1.8-3.38,3.99-6.49,6.55-9.32,2.56-2.83,5.42-5.28,8.6-7.33,3.17-2.06,6.61-3.66,10.31-4.8,3.7-1.14,7.61-1.71,11.72-1.71,6.62,0,12.67,1.03,18.13,3.08,5.46,2.06,10.12,4.99,13.98,8.81,3.86,3.82,6.85,8.43,8.98,13.84s3.19,11.46,3.19,18.13ZM467.59,315.35c0-1.96-.29-3.87-.86-5.72-.57-1.85-1.41-3.5-2.5-4.94s-2.46-2.6-4.08-3.5c-1.62-.89-3.48-1.34-5.59-1.34s-4.07.39-5.76,1.17c-1.69.78-3.14,1.84-4.35,3.19-1.21,1.35-2.14,2.92-2.78,4.73-.64,1.8-.96,3.71-.96,5.72s.27,3.84.82,5.76c.55,1.92,1.37,3.66,2.47,5.21s2.46,2.81,4.08,3.77c1.62.96,3.51,1.44,5.65,1.44s4.08-.42,5.79-1.27c1.71-.84,3.16-1.99,4.35-3.43,1.19-1.44,2.1-3.1,2.74-4.97s.96-3.81.96-5.83Z" fill="#000" stroke="#fff" stroke-linecap="round" stroke-linejoin="round" stroke-width="24"/>
      <path d="M606.03,244.52l-30.66,116.59-41.54,2.34-37.69-117.76,39.7-3.69,16.08,68.68,15.58-68.68,38.53,2.51Z" fill="#000" stroke="#fff" stroke-linecap="round" stroke-linejoin="round" stroke-width="24"/>
      <path d="M648.06,258.03l-8.12,100.53-31.15,1.62v-100.08l39.27-2.07Z" fill="#000" stroke="#fff" stroke-linecap="round" stroke-linejoin="round" stroke-width="24"/>
      <path d="M736.11,236.64c-.35,5.45-.67,10.83-.96,16.16-.29,5.33-.67,10.72-1.13,16.16l-36.85,1.91-.87,10.95h25.9l-1.91,26.94-26.07.87-.87,12.69h36.85c-.35,6.37-.71,12.7-1.09,18.99-.38,6.29-.71,12.59-1,18.9l-74.91,1.74,2.78-125.31h80.12Z" fill="#000" stroke="#fff" stroke-linecap="round" stroke-linejoin="round" stroke-width="24"/>
      <path d="M136.21,427.04c0,5.21-.78,9.84-2.34,13.87-1.56,4.03-3.7,7.55-6.41,10.56-2.71,3.01-5.9,5.56-9.55,7.66-3.66,2.1-7.57,3.8-11.73,5.12-4.17,1.32-8.48,2.29-12.94,2.9-4.46.62-8.84.96-13.14,1.01v37.57h-37.57c0-12.31.03-24.56.08-36.77.05-12.2.13-24.51.24-36.93.11-6.56.13-13.11.08-19.67-.05-6.56.08-13.17.4-19.83,6.88-2.04,13.76-3.57,20.64-4.6,6.88-1.02,13.98-1.53,21.29-1.53,4.14,0,8.28.34,12.42,1.01,4.14.67,8.1,1.73,11.89,3.18s7.31,3.27,10.56,5.44c3.25,2.18,6.06,4.77,8.43,7.78,2.36,3.01,4.23,6.44,5.6,10.28,1.37,3.84,2.06,8.16,2.06,12.94ZM100.42,429.78c0-3.49-1.06-6.22-3.18-8.18-2.12-1.96-4.88-2.94-8.26-2.94-1.13,0-2.3.09-3.51.28-1.21.19-2.35.42-3.43.68l-.97,23.54c.75.11,1.48.16,2.18.16h2.18c1.94,0,3.8-.32,5.6-.97,1.8-.65,3.4-1.57,4.8-2.78,1.4-1.21,2.51-2.63,3.35-4.27.83-1.64,1.25-3.48,1.25-5.52Z" fill="#000" stroke="#fff" stroke-linecap="round" stroke-linejoin="round" stroke-width="24"/>
      <path d="M210.32,424.58c0,3.48-.4,6.83-1.2,10.06s-1.96,6.26-3.47,9.09c-1.51,2.83-3.34,5.42-5.5,7.77-2.16,2.35-4.59,4.37-7.28,6.05-2.69,1.68-5.63,2.99-8.8,3.93-3.17.94-6.54,1.4-10.09,1.4s-6.72-.44-9.83-1.32c-3.12-.88-6.03-2.11-8.74-3.7-2.71-1.59-5.17-3.5-7.37-5.73-2.2-2.24-4.07-4.72-5.62-7.45-1.55-2.73-2.75-5.67-3.61-8.8-.86-3.13-1.29-6.4-1.29-9.8s.4-6.58,1.2-9.77c.8-3.19,1.96-6.2,3.47-9.03,1.51-2.83,3.33-5.43,5.47-7.8,2.14-2.37,4.54-4.41,7.19-6.13s5.53-3.06,8.63-4.01c3.1-.96,6.36-1.43,9.8-1.43,5.54,0,10.6.86,15.16,2.58,4.57,1.72,8.46,4.18,11.69,7.37,3.23,3.19,5.73,7.05,7.51,11.58,1.78,4.53,2.67,9.58,2.67,15.16ZM184.86,426.08c0-1.64-.24-3.24-.72-4.79-.48-1.55-1.18-2.92-2.09-4.13-.92-1.2-2.06-2.18-3.41-2.92-1.36-.75-2.91-1.12-4.67-1.12s-3.4.33-4.82.97c-1.41.65-2.63,1.54-3.64,2.67-1.01,1.13-1.79,2.45-2.32,3.96-.54,1.51-.8,3.11-.8,4.79s.23,3.21.69,4.82c.46,1.6,1.15,3.06,2.06,4.36.92,1.3,2.05,2.35,3.41,3.15,1.36.8,2.93,1.2,4.73,1.2s3.41-.35,4.84-1.06c1.43-.71,2.65-1.66,3.64-2.87.99-1.2,1.76-2.59,2.29-4.16.53-1.57.8-3.19.8-4.87Z" fill="#000" stroke="#fff" stroke-linecap="round" stroke-linejoin="round" stroke-width="24"/>
      <path d="M276.84,444.61c0,5.51-.96,10.33-2.87,14.45-1.91,4.12-4.52,7.55-7.84,10.29-3.32,2.74-7.2,4.79-11.64,6.15-4.44,1.37-9.22,2.05-14.33,2.05-1.97,0-4.13-.26-6.49-.78-2.35-.52-4.74-1.18-7.15-1.96s-4.74-1.63-6.97-2.53c-2.23-.9-4.21-1.76-5.94-2.56l2.65-24.86c3.42,2.05,7.21,3.61,11.37,4.68,4.16,1.07,8.25,1.6,12.28,1.6.76,0,1.69-.03,2.78-.09,1.09-.06,2.12-.24,3.11-.54.98-.3,1.82-.75,2.5-1.36.68-.6,1.03-1.47,1.03-2.59,0-.76-.24-1.42-.72-1.96s-1.11-.98-1.87-1.33c-.76-.34-1.63-.6-2.59-.78-.97-.18-1.91-.31-2.84-.39-.93-.08-1.79-.12-2.59-.12h-1.93c-3.46,0-6.61-.6-9.44-1.81-2.84-1.21-5.27-2.89-7.3-5.04-2.03-2.15-3.61-4.71-4.74-7.66-1.13-2.96-1.69-6.16-1.69-9.62,0-4.75.95-9,2.87-12.76,1.91-3.76,4.46-6.96,7.66-9.59,3.2-2.63,6.87-4.66,11.01-6.06,4.14-1.41,8.43-2.11,12.85-2.11,1.97,0,4,.07,6.09.21,2.09.14,4.17.39,6.24.75,2.07.36,4.09.82,6.06,1.39,1.97.56,3.84,1.27,5.61,2.11l-2.29,24.49c-2.74-.92-5.6-1.7-8.6-2.32-3-.62-5.92-.93-8.78-.93-.52,0-1.2,0-2.02.03-.82.02-1.69.08-2.59.18-.9.1-1.82.25-2.74.45-.93.2-1.75.47-2.47.81-.72.34-1.31.79-1.75,1.36-.44.56-.64,1.23-.6,1.99.04.88.37,1.6,1,2.14.62.54,1.43.96,2.41,1.27.99.3,2.07.51,3.26.63,1.19.12,2.36.19,3.53.21,1.17.02,2.25.02,3.26,0,1-.02,1.83.01,2.47.09,3.22.2,6.11.88,8.69,2.05,2.57,1.17,4.76,2.71,6.55,4.65,1.79,1.93,3.16,4.23,4.1,6.91.94,2.67,1.42,5.62,1.42,8.84Z" fill="#000" stroke="#fff" stroke-linecap="round" stroke-linejoin="round" stroke-width="24"/>
      <path d="M342.31,391.01l-.58,24.78-17.41.7-4.44,55.39-24.66,1.29.12-55.39-17.41.93.7-27.58,63.69-.12Z" fill="#000" stroke="#fff" stroke-linecap="round" stroke-linejoin="round" stroke-width="24"/>
      <path d="M389.47,394.16c-.19,2.95-.36,5.86-.52,8.75-.16,2.88-.36,5.8-.61,8.75l-19.94,1.03-.47,5.92h14.01l-1.04,14.58-14.11.47-.47,6.87h19.94c-.19,3.45-.38,6.87-.59,10.27-.2,3.4-.38,6.81-.54,10.23l-40.53.94,1.5-67.8h43.35Z" fill="#000" stroke="#fff" stroke-linecap="round" stroke-linejoin="round" stroke-width="24"/>
      <path d="M464.42,419.98c0,3.22-.28,6.14-.84,8.76-.56,2.62-1.44,5.03-2.63,7.22-1.2,2.19-2.75,4.21-4.65,6.07-1.9,1.86-4.19,3.63-6.88,5.33l14.74,26.26-27.87,5.45-9.54-26.39-7.68.25-1.11,25.77h-26.63c.21-9.42.4-18.79.59-28.12.19-9.33.4-18.71.65-28.12.08-4.75.16-9.46.25-14.12.08-4.67.25-9.37.5-14.12,2.89-1.07,5.74-1.96,8.55-2.66,2.81-.7,5.63-1.25,8.46-1.64,2.83-.39,5.7-.66,8.61-.8s5.89-.22,8.95-.22c4.71,0,9.26.65,13.66,1.95,4.4,1.3,8.29,3.25,11.68,5.85,3.38,2.6,6.1,5.84,8.14,9.72,2.04,3.88,3.07,8.4,3.07,13.57ZM436.67,421.96c0-1.73-.24-3.32-.71-4.77s-1.18-2.7-2.11-3.75c-.93-1.05-2.09-1.88-3.47-2.48-1.38-.6-3-.9-4.86-.9-.83,0-1.63.05-2.42.16-.79.1-1.55.26-2.29.46l-.99,23.04h1.49c1.77,0,3.58-.23,5.42-.68,1.84-.45,3.49-1.16,4.96-2.11,1.46-.95,2.66-2.17,3.59-3.65.93-1.49,1.39-3.26,1.39-5.33Z" fill="#000" stroke="#fff" stroke-linecap="round" stroke-linejoin="round" stroke-width="24"/>
      <path d="M588.57,433.56c0,6.95-1.29,13.57-3.87,19.88-2.58,6.31-6.45,11.83-11.62,16.59l9.46,11.24-25.08,16.18-5.89-16.18c-1.74.37-3.48.64-5.24.82-1.76.18-3.53.27-5.31.27-4.39,0-8.59-.55-12.61-1.64-4.02-1.1-7.79-2.64-11.31-4.63-3.52-1.99-6.72-4.4-9.6-7.23-2.88-2.83-5.36-5.99-7.44-9.46-2.08-3.47-3.68-7.23-4.8-11.27-1.12-4.04-1.68-8.26-1.68-12.65s.54-8.56,1.61-12.65c1.07-4.09,2.6-7.94,4.59-11.55,1.99-3.61,4.39-6.91,7.2-9.9,2.81-2.99,5.95-5.57,9.42-7.75,3.47-2.17,7.22-3.85,11.24-5.04,4.02-1.19,8.25-1.78,12.68-1.78,7.08,0,13.58,1.07,19.5,3.22,5.92,2.15,11,5.23,15.25,9.25,4.25,4.02,7.56,8.92,9.94,14.7,2.38,5.78,3.56,12.3,3.56,19.57ZM555.26,435.47c0-2.1-.31-4.15-.92-6.13-.62-1.99-1.52-3.75-2.71-5.28-1.19-1.53-2.67-2.75-4.45-3.67-1.78-.91-3.84-1.37-6.17-1.37s-4.34.4-6.17,1.2c-1.83.8-3.39,1.91-4.69,3.32-1.3,1.42-2.31,3.08-3.02,5-.71,1.92-1.06,4-1.06,6.24,0,2.1.31,4.17.92,6.2.62,2.03,1.52,3.86,2.71,5.48,1.19,1.62,2.67,2.94,4.46,3.94,1.78,1.01,3.84,1.51,6.17,1.51s4.28-.45,6.13-1.34c1.85-.89,3.43-2.09,4.73-3.6,1.3-1.51,2.31-3.26,3.02-5.24.71-1.99,1.06-4.08,1.06-6.27Z" fill="#000" stroke="#fff" stroke-linecap="round" stroke-linejoin="round" stroke-width="24"/>
      <path d="M662.43,409.57c0,2.87-.14,6.03-.41,9.48-.27,3.45-.72,7.02-1.34,10.7-.62,3.68-1.42,7.41-2.41,11.19-.99,3.78-2.22,7.41-3.69,10.9-1.47,3.49-3.19,6.75-5.15,9.8-1.96,3.04-4.21,5.7-6.74,7.96s-5.38,4.05-8.52,5.35-6.63,1.95-10.46,1.95c-4.5,0-8.4-.73-11.71-2.18-3.31-1.45-6.15-3.41-8.52-5.87-2.36-2.46-4.3-5.33-5.81-8.6s-2.69-6.74-3.55-10.41c-.85-3.66-1.44-7.4-1.77-11.22-.33-3.82-.49-7.49-.49-11.02,0-5.43.27-10.84.81-16.25.54-5.41,1.32-10.8,2.33-16.19l27.21,1.05c-1.05,6.08-1.95,12.2-2.7,18.34-.76,6.14-1.13,12.32-1.13,18.52,0,.66.03,1.64.09,2.94.06,1.3.16,2.75.32,4.36.15,1.61.38,3.25.67,4.94.29,1.69.69,3.23,1.19,4.62.5,1.39,1.11,2.54,1.83,3.43.72.89,1.56,1.34,2.53,1.34,1.12,0,2.13-.53,3.02-1.6.89-1.07,1.68-2.49,2.35-4.27.68-1.78,1.27-3.84,1.77-6.16s.93-4.75,1.28-7.27.63-5.04.84-7.56c.21-2.52.39-4.86.52-7.03.14-2.17.22-4.09.26-5.76.04-1.67.06-2.91.06-3.72,0-3.02-.05-6.04-.14-9.04-.1-3-.24-6-.44-8.98h27.21c.46,5.35.7,10.78.7,16.28Z" fill="#000" stroke="#fff" stroke-linecap="round" stroke-linejoin="round" stroke-width="24"/>
      <path d="M698.62,393.25l-6.42,79.5-24.63,1.28v-79.15l31.05-1.63Z" fill="#000" stroke="#fff" stroke-linecap="round" stroke-linejoin="round" stroke-width="24"/>
      <path d="M765.88,417.19l-31.39,42.36h30.29l-.41,29.06-61.14,2.47-2.74-26.87,35.78-46.61-32.76,2.47-.27-27.55h61.41l1.23,24.67Z" fill="#000" stroke="#fff" stroke-linecap="round" stroke-linejoin="round" stroke-width="24"/>
    </g>
    <g>
      <g>
        <path d="M129.09,287.26l-.52,22.19-15.6.63-3.98,49.62-22.09,1.15.1-49.62-15.6.84.63-24.7,57.05-.1Z" fill="#000" stroke-width="0"/>
        <path d="M182.13,362.11l-21.34,1.02-.17-19.72h-9.82l-.6,18.69h-19.12l1.62-60,20.31.94-1.28,30.64h9.47l.09-32.95,19.46.51,1.37,60.86Z" fill="#000" stroke-width="0"/>
        <path d="M232.63,291.86c-.19,3.05-.37,6.07-.54,9.06-.16,2.99-.37,6.01-.63,9.06l-20.66,1.07-.49,6.14h14.52l-1.07,15.1-14.61.49-.49,7.11h20.66c-.19,3.57-.4,7.12-.61,10.64-.21,3.52-.4,7.06-.56,10.6l-41.99.97,1.56-70.25h44.92Z" fill="#000" stroke-width="0"/>
        <path d="M407.33,226.88l-8.53,136.15-42.29,1.85.37-71.79-19.11,57.88h-16.32l-14.65-51.75-.19,60.1-42.85,1.3,1.85-128.18,47.67-1.85,18.92,61.4,25.23-65.11h49.9Z" fill="#000" stroke-width="0"/>
        <path d="M497.58,313.72c0,4.16-.48,8.17-1.44,12.03-.96,3.86-2.34,7.48-4.15,10.86-1.81,3.38-4,6.48-6.58,9.29-2.58,2.81-5.48,5.22-8.7,7.23-3.22,2.01-6.73,3.58-10.52,4.7s-7.81,1.68-12.06,1.68-8.03-.52-11.75-1.58c-3.72-1.05-7.21-2.52-10.45-4.42-3.25-1.9-6.18-4.18-8.81-6.85-2.63-2.67-4.87-5.64-6.72-8.91-1.85-3.27-3.29-6.77-4.32-10.52-1.03-3.75-1.54-7.65-1.54-11.72s.48-7.87,1.44-11.69c.96-3.81,2.34-7.41,4.15-10.79,1.8-3.38,3.99-6.49,6.55-9.32,2.56-2.83,5.42-5.28,8.6-7.33,3.17-2.06,6.61-3.66,10.31-4.8,3.7-1.14,7.61-1.71,11.72-1.71,6.62,0,12.67,1.03,18.13,3.08,5.46,2.06,10.12,4.99,13.98,8.81,3.86,3.82,6.85,8.43,8.98,13.84s3.19,11.46,3.19,18.13ZM467.15,315.5c0-1.96-.29-3.87-.86-5.72-.57-1.85-1.41-3.5-2.5-4.93-1.1-1.44-2.46-2.61-4.08-3.5-1.62-.89-3.48-1.34-5.59-1.34s-4.07.39-5.76,1.16c-1.69.78-3.14,1.84-4.35,3.19-1.21,1.35-2.14,2.92-2.78,4.73-.64,1.81-.96,3.71-.96,5.72s.27,3.84.82,5.76c.55,1.92,1.37,3.66,2.47,5.21,1.1,1.55,2.46,2.81,4.08,3.77,1.62.96,3.51,1.44,5.65,1.44s4.08-.42,5.79-1.27c1.71-.84,3.16-1.99,4.35-3.43,1.19-1.44,2.1-3.09,2.74-4.97.64-1.87.96-3.81.96-5.83Z" fill="#000" stroke-width="0"/>
        <path d="M605.59,244.68l-30.66,116.59-41.54,2.35-37.69-117.76,39.7-3.69,16.08,68.68,15.58-68.68,38.53,2.51Z" fill="#000" stroke-width="0"/>
        <path d="M647.62,258.18l-8.12,100.53-31.15,1.62v-100.08l39.27-2.07Z" fill="#000" stroke-width="0"/>
        <path d="M735.67,236.8c-.35,5.45-.67,10.83-.96,16.16-.29,5.33-.67,10.72-1.13,16.16l-36.85,1.91-.87,10.95h25.9l-1.91,26.94-26.07.87-.87,12.69h36.85c-.35,6.37-.71,12.7-1.09,18.99-.38,6.29-.71,12.59-1,18.9l-74.91,1.74,2.78-125.31h80.12Z" fill="#000" stroke-width="0"/>
        <path d="M135.77,427.19c0,5.21-.78,9.84-2.34,13.87-1.56,4.03-3.7,7.55-6.41,10.56-2.71,3.01-5.9,5.56-9.55,7.66-3.66,2.1-7.57,3.8-11.73,5.12-4.17,1.32-8.48,2.29-12.94,2.9-4.46.62-8.84.96-13.14,1.01v37.57h-37.57c0-12.31.03-24.56.08-36.77.05-12.2.13-24.51.24-36.93.11-6.56.13-13.11.08-19.67-.05-6.56.08-13.17.4-19.83,6.88-2.04,13.76-3.57,20.64-4.6,6.88-1.02,13.98-1.53,21.29-1.53,4.14,0,8.28.34,12.42,1.01,4.14.67,8.1,1.73,11.89,3.18s7.31,3.27,10.56,5.44c3.25,2.18,6.06,4.77,8.43,7.78,2.36,3.01,4.23,6.44,5.6,10.28,1.37,3.84,2.06,8.16,2.06,12.94ZM99.98,429.94c0-3.49-1.06-6.22-3.18-8.18-2.12-1.96-4.88-2.94-8.26-2.94-1.13,0-2.3.09-3.51.28-1.21.19-2.35.42-3.43.68l-.97,23.54c.75.11,1.48.16,2.18.16h2.18c1.94,0,3.8-.32,5.6-.97,1.8-.65,3.4-1.57,4.8-2.78,1.4-1.21,2.51-2.63,3.35-4.27.83-1.64,1.25-3.48,1.25-5.52Z" fill="#000" stroke-width="0"/>
        <path d="M209.88,424.74c0,3.48-.4,6.83-1.2,10.06s-1.96,6.26-3.47,9.09c-1.51,2.83-3.34,5.42-5.5,7.77-2.16,2.35-4.59,4.37-7.28,6.05-2.69,1.68-5.63,2.99-8.8,3.93-3.17.94-6.54,1.4-10.09,1.4s-6.72-.44-9.83-1.32c-3.12-.88-6.03-2.11-8.74-3.7-2.71-1.59-5.17-3.5-7.37-5.73-2.2-2.24-4.07-4.72-5.62-7.45-1.55-2.73-2.75-5.67-3.61-8.8-.86-3.13-1.29-6.4-1.29-9.8s.4-6.58,1.2-9.77c.8-3.19,1.96-6.2,3.47-9.03,1.51-2.83,3.33-5.43,5.47-7.8,2.14-2.37,4.54-4.41,7.19-6.13s5.53-3.06,8.63-4.01c3.1-.96,6.36-1.43,9.8-1.43,5.54,0,10.6.86,15.16,2.58,4.57,1.72,8.46,4.18,11.69,7.37,3.23,3.19,5.73,7.05,7.51,11.58,1.78,4.53,2.67,9.58,2.67,15.16ZM184.42,426.23c0-1.64-.24-3.24-.72-4.79-.48-1.55-1.18-2.92-2.09-4.13-.92-1.2-2.06-2.18-3.41-2.92-1.36-.75-2.91-1.12-4.67-1.12s-3.4.33-4.82.97c-1.41.65-2.63,1.54-3.64,2.67-1.01,1.13-1.79,2.45-2.32,3.96-.54,1.51-.8,3.11-.8,4.79s.23,3.21.69,4.82c.46,1.6,1.15,3.06,2.06,4.36.92,1.3,2.05,2.35,3.41,3.15,1.36.8,2.93,1.2,4.73,1.2s3.41-.35,4.84-1.06c1.43-.71,2.65-1.66,3.64-2.87.99-1.2,1.76-2.59,2.29-4.16.53-1.57.8-3.19.8-4.87Z" fill="#000" stroke-width="0"/>
        <path d="M276.4,444.76c0,5.51-.96,10.33-2.87,14.45-1.91,4.12-4.52,7.55-7.84,10.29-3.32,2.74-7.2,4.79-11.64,6.15-4.44,1.37-9.22,2.05-14.33,2.05-1.97,0-4.13-.26-6.49-.78-2.35-.52-4.74-1.18-7.15-1.96s-4.74-1.63-6.97-2.53c-2.23-.9-4.21-1.76-5.94-2.56l2.65-24.86c3.42,2.05,7.21,3.61,11.37,4.68,4.16,1.07,8.25,1.6,12.28,1.6.76,0,1.69-.03,2.78-.09,1.09-.06,2.12-.24,3.11-.54.98-.3,1.82-.75,2.5-1.36.68-.6,1.03-1.47,1.03-2.59,0-.76-.24-1.42-.72-1.96s-1.11-.98-1.87-1.33c-.76-.34-1.63-.6-2.59-.78-.97-.18-1.91-.31-2.84-.39-.93-.08-1.79-.12-2.59-.12h-1.93c-3.46,0-6.61-.6-9.44-1.81-2.84-1.21-5.27-2.89-7.3-5.04-2.03-2.15-3.61-4.71-4.74-7.66-1.13-2.96-1.69-6.16-1.69-9.62,0-4.75.95-9,2.87-12.76,1.91-3.76,4.46-6.96,7.66-9.59,3.2-2.63,6.87-4.66,11.01-6.06,4.14-1.41,8.43-2.11,12.85-2.11,1.97,0,4,.07,6.09.21,2.09.14,4.17.39,6.24.75,2.07.36,4.09.82,6.06,1.39,1.97.56,3.84,1.27,5.61,2.11l-2.29,24.49c-2.74-.92-5.6-1.7-8.6-2.32-3-.62-5.92-.93-8.78-.93-.52,0-1.2,0-2.02.03-.82.02-1.69.08-2.59.18-.9.1-1.82.25-2.74.45-.93.2-1.75.47-2.47.81-.72.34-1.31.79-1.75,1.36-.44.56-.64,1.23-.6,1.99.04.88.37,1.6,1,2.14.62.54,1.43.96,2.41,1.27.99.3,2.07.51,3.26.63,1.19.12,2.36.19,3.53.21,1.17.02,2.25.02,3.26,0,1-.02,1.83.01,2.47.09,3.22.2,6.11.88,8.69,2.05,2.57,1.17,4.76,2.71,6.55,4.65,1.79,1.93,3.16,4.23,4.1,6.91.94,2.67,1.42,5.62,1.42,8.84Z" fill="#000" stroke-width="0"/>
        <path d="M341.87,391.16l-.58,24.78-17.41.7-4.44,55.39-24.66,1.29.12-55.39-17.41.93.7-27.58,63.69-.12Z" fill="#000" stroke-width="0"/>
        <path d="M389.03,394.32c-.19,2.95-.36,5.86-.52,8.75-.16,2.88-.36,5.8-.61,8.75l-19.94,1.03-.47,5.92h14.01l-1.04,14.58-14.11.47-.47,6.87h19.94c-.19,3.45-.38,6.87-.59,10.27-.2,3.4-.38,6.81-.54,10.23l-40.53.94,1.5-67.8h43.35Z" fill="#000" stroke-width="0"/>
        <path d="M463.98,420.13c0,3.22-.28,6.14-.84,8.76-.56,2.62-1.44,5.03-2.63,7.22-1.2,2.19-2.75,4.21-4.65,6.07-1.9,1.86-4.19,3.63-6.88,5.33l14.74,26.26-27.87,5.45-9.54-26.39-7.68.25-1.11,25.77h-26.63c.21-9.42.4-18.79.59-28.12.19-9.33.4-18.71.65-28.12.08-4.75.16-9.46.25-14.12.08-4.67.25-9.37.5-14.12,2.89-1.07,5.74-1.96,8.55-2.66,2.81-.7,5.63-1.25,8.46-1.64,2.83-.39,5.7-.66,8.61-.8s5.89-.22,8.95-.22c4.71,0,9.26.65,13.66,1.95,4.4,1.3,8.29,3.25,11.68,5.85,3.38,2.6,6.1,5.84,8.14,9.72,2.04,3.88,3.07,8.4,3.07,13.57ZM436.23,422.11c0-1.73-.24-3.32-.71-4.77s-1.18-2.7-2.11-3.75c-.93-1.05-2.09-1.88-3.47-2.48-1.38-.6-3-.9-4.86-.9-.83,0-1.63.05-2.42.16-.79.1-1.55.26-2.29.46l-.99,23.04h1.49c1.77,0,3.58-.23,5.42-.68,1.84-.45,3.49-1.16,4.96-2.11,1.46-.95,2.66-2.17,3.59-3.65.93-1.49,1.39-3.26,1.39-5.33Z" fill="#000" stroke-width="0"/>
        <path d="M588.13,433.71c0,6.95-1.29,13.57-3.87,19.88-2.58,6.31-6.45,11.83-11.62,16.59l9.46,11.24-25.08,16.18-5.89-16.18c-1.74.37-3.48.64-5.24.82-1.76.18-3.53.27-5.31.27-4.39,0-8.59-.55-12.61-1.64-4.02-1.1-7.79-2.64-11.31-4.63-3.52-1.99-6.72-4.4-9.6-7.23-2.88-2.83-5.36-5.99-7.44-9.46-2.08-3.47-3.68-7.23-4.8-11.27-1.12-4.04-1.68-8.26-1.68-12.65s.54-8.56,1.61-12.65c1.07-4.09,2.6-7.94,4.59-11.55,1.99-3.61,4.39-6.91,7.2-9.9,2.81-2.99,5.95-5.57,9.42-7.75,3.47-2.17,7.22-3.85,11.24-5.04,4.02-1.19,8.25-1.78,12.68-1.78,7.08,0,13.58,1.07,19.5,3.22,5.92,2.15,11,5.23,15.25,9.25,4.25,4.02,7.56,8.92,9.94,14.7,2.38,5.78,3.56,12.3,3.56,19.57ZM554.82,435.63c0-2.1-.31-4.15-.92-6.13-.62-1.99-1.52-3.75-2.71-5.28-1.19-1.53-2.67-2.75-4.45-3.67-1.78-.91-3.84-1.37-6.17-1.37s-4.34.4-6.17,1.2c-1.83.8-3.39,1.91-4.69,3.32-1.3,1.42-2.31,3.08-3.02,5-.71,1.92-1.06,4-1.06,6.24,0,2.1.31,4.17.92,6.2.62,2.03,1.52,3.86,2.71,5.48,1.19,1.62,2.67,2.94,4.46,3.94,1.78,1.01,3.84,1.51,6.17,1.51s4.28-.45,6.13-1.34c1.85-.89,3.43-2.09,4.73-3.6,1.3-1.51,2.31-3.26,3.02-5.24.71-1.99,1.06-4.08,1.06-6.27Z" fill="#000" stroke-width="0"/>
        <path d="M661.99,409.72c0,2.87-.14,6.03-.41,9.48-.27,3.45-.72,7.02-1.34,10.7-.62,3.68-1.42,7.41-2.41,11.19-.99,3.78-2.22,7.41-3.69,10.9-1.47,3.49-3.19,6.75-5.15,9.8-1.96,3.04-4.21,5.7-6.74,7.96s-5.38,4.05-8.52,5.35-6.63,1.95-10.46,1.95c-4.5,0-8.4-.73-11.71-2.18-3.31-1.45-6.15-3.41-8.52-5.87-2.36-2.46-4.3-5.33-5.81-8.6s-2.69-6.74-3.55-10.41c-.85-3.66-1.44-7.4-1.77-11.22-.33-3.82-.49-7.49-.49-11.02,0-5.43.27-10.84.81-16.25.54-5.41,1.32-10.8,2.33-16.19l27.21,1.05c-1.05,6.08-1.95,12.2-2.7,18.34-.76,6.14-1.13,12.32-1.13,18.52,0,.66.03,1.64.09,2.94.06,1.3.16,2.75.32,4.36.15,1.61.38,3.25.67,4.94.29,1.69.69,3.23,1.19,4.62.5,1.39,1.11,2.54,1.83,3.43.72.89,1.56,1.34,2.53,1.34,1.12,0,2.13-.53,3.02-1.6.89-1.07,1.68-2.49,2.35-4.27.68-1.78,1.27-3.84,1.77-6.16s.93-4.75,1.28-7.27.63-5.04.84-7.56c.21-2.52.39-4.86.52-7.03.14-2.17.22-4.09.26-5.76.04-1.67.06-2.91.06-3.72,0-3.02-.05-6.04-.14-9.04-.1-3-.24-6-.44-8.98h27.21c.46,5.35.7,10.78.7,16.28Z" fill="#000" stroke-width="0"/>
        <path d="M698.18,393.4l-6.42,79.5-24.63,1.28v-79.15l31.05-1.63Z" fill="#000" stroke-width="0"/>
        <path d="M765.44,417.35l-31.39,42.36h30.29l-.41,29.06-61.14,2.47-2.74-26.87,35.78-46.61-32.76,2.47-.27-27.55h61.41l1.23,24.67Z" fill="#000" stroke-width="0"/>
      </g>
      <g>
        <path d="M129.09,287.26l-.52,22.19-15.6.63-3.98,49.62-22.09,1.15.1-49.62-15.6.84.63-24.7,57.05-.1Z" fill="url(#Naamloos_verloop_10)" stroke-width="0"/>
        <path d="M182.13,362.11l-21.34,1.02-.17-19.72h-9.82l-.6,18.69h-19.12l1.62-60,20.31.94-1.28,30.64h9.47l.09-32.95,19.46.51,1.37,60.86Z" fill="url(#Naamloos_verloop_10)" stroke-width="0"/>
        <path d="M232.63,291.86c-.19,3.05-.37,6.07-.54,9.06-.16,2.99-.37,6.01-.63,9.06l-20.66,1.07-.49,6.14h14.52l-1.07,15.1-14.61.49-.49,7.11h20.66c-.19,3.57-.4,7.12-.61,10.64-.21,3.52-.4,7.06-.56,10.6l-41.99.97,1.56-70.25h44.92Z" fill="url(#Naamloos_verloop_10)" stroke-width="0"/>
        <path d="M407.33,226.88l-8.53,136.15-42.29,1.85.37-71.79-19.11,57.88h-16.32l-14.65-51.75-.19,60.1-42.85,1.3,1.85-128.18,47.67-1.85,18.92,61.4,25.23-65.11h49.9Z" fill="url(#Naamloos_verloop_10)" stroke-width="0"/>
        <path d="M497.58,313.72c0,4.16-.48,8.17-1.44,12.03-.96,3.86-2.34,7.48-4.15,10.86-1.81,3.38-4,6.48-6.58,9.29-2.58,2.81-5.48,5.22-8.7,7.23-3.22,2.01-6.73,3.58-10.52,4.7s-7.81,1.68-12.06,1.68-8.03-.52-11.75-1.58c-3.72-1.05-7.21-2.52-10.45-4.42-3.25-1.9-6.18-4.18-8.81-6.85-2.63-2.67-4.87-5.64-6.72-8.91-1.85-3.27-3.29-6.77-4.32-10.52-1.03-3.75-1.54-7.65-1.54-11.72s.48-7.87,1.44-11.69c.96-3.81,2.34-7.41,4.15-10.79,1.8-3.38,3.99-6.49,6.55-9.32,2.56-2.83,5.42-5.28,8.6-7.33,3.17-2.06,6.61-3.66,10.31-4.8,3.7-1.14,7.61-1.71,11.72-1.71,6.62,0,12.67,1.03,18.13,3.08,5.46,2.06,10.12,4.99,13.98,8.81,3.86,3.82,6.85,8.43,8.98,13.84s3.19,11.46,3.19,18.13ZM467.15,315.5c0-1.96-.29-3.87-.86-5.72-.57-1.85-1.41-3.5-2.5-4.93-1.1-1.44-2.46-2.61-4.08-3.5-1.62-.89-3.48-1.34-5.59-1.34s-4.07.39-5.76,1.16c-1.69.78-3.14,1.84-4.35,3.19-1.21,1.35-2.14,2.92-2.78,4.73-.64,1.81-.96,3.71-.96,5.72s.27,3.84.82,5.76c.55,1.92,1.37,3.66,2.47,5.21,1.1,1.55,2.46,2.81,4.08,3.77,1.62.96,3.51,1.44,5.65,1.44s4.08-.42,5.79-1.27c1.71-.84,3.16-1.99,4.35-3.43,1.19-1.44,2.1-3.09,2.74-4.97.64-1.87.96-3.81.96-5.83Z" fill="url(#Naamloos_verloop_10)" stroke-width="0"/>
        <path d="M605.59,244.68l-30.66,116.59-41.54,2.35-37.69-117.76,39.7-3.69,16.08,68.68,15.58-68.68,38.53,2.51Z" fill="url(#Naamloos_verloop_10)" stroke-width="0"/>
        <path d="M647.62,258.18l-8.12,100.53-31.15,1.62v-100.08l39.27-2.07Z" fill="url(#Naamloos_verloop_10)" stroke-width="0"/>
        <path d="M735.67,236.8c-.35,5.45-.67,10.83-.96,16.16-.29,5.33-.67,10.72-1.13,16.16l-36.85,1.91-.87,10.95h25.9l-1.91,26.94-26.07.87-.87,12.69h36.85c-.35,6.37-.71,12.7-1.09,18.99-.38,6.29-.71,12.59-1,18.9l-74.91,1.74,2.78-125.31h80.12Z" fill="url(#Naamloos_verloop_10)" stroke-width="0"/>
        <path d="M135.77,427.19c0,5.21-.78,9.84-2.34,13.87-1.56,4.03-3.7,7.55-6.41,10.56-2.71,3.01-5.9,5.56-9.55,7.66-3.66,2.1-7.57,3.8-11.73,5.12-4.17,1.32-8.48,2.29-12.94,2.9-4.46.62-8.84.96-13.14,1.01v37.57h-37.57c0-12.31.03-24.56.08-36.77.05-12.2.13-24.51.24-36.93.11-6.56.13-13.11.08-19.67-.05-6.56.08-13.17.4-19.83,6.88-2.04,13.76-3.57,20.64-4.6,6.88-1.02,13.98-1.53,21.29-1.53,4.14,0,8.28.34,12.42,1.01,4.14.67,8.1,1.73,11.89,3.18s7.31,3.27,10.56,5.44c3.25,2.18,6.06,4.77,8.43,7.78,2.36,3.01,4.23,6.44,5.6,10.28,1.37,3.84,2.06,8.16,2.06,12.94ZM99.98,429.94c0-3.49-1.06-6.22-3.18-8.18-2.12-1.96-4.88-2.94-8.26-2.94-1.13,0-2.3.09-3.51.28-1.21.19-2.35.42-3.43.68l-.97,23.54c.75.11,1.48.16,2.18.16h2.18c1.94,0,3.8-.32,5.6-.97,1.8-.65,3.4-1.57,4.8-2.78,1.4-1.21,2.51-2.63,3.35-4.27.83-1.64,1.25-3.48,1.25-5.52Z" fill="url(#Naamloos_verloop_10)" stroke-width="0"/>
        <path d="M209.88,424.74c0,3.48-.4,6.83-1.2,10.06s-1.96,6.26-3.47,9.09c-1.51,2.83-3.34,5.42-5.5,7.77-2.16,2.35-4.59,4.37-7.28,6.05-2.69,1.68-5.63,2.99-8.8,3.93-3.17.94-6.54,1.4-10.09,1.4s-6.72-.44-9.83-1.32c-3.12-.88-6.03-2.11-8.74-3.7-2.71-1.59-5.17-3.5-7.37-5.73-2.2-2.24-4.07-4.72-5.62-7.45-1.55-2.73-2.75-5.67-3.61-8.8-.86-3.13-1.29-6.4-1.29-9.8s.4-6.58,1.2-9.77c.8-3.19,1.96-6.2,3.47-9.03,1.51-2.83,3.33-5.43,5.47-7.8,2.14-2.37,4.54-4.41,7.19-6.13s5.53-3.06,8.63-4.01c3.1-.96,6.36-1.43,9.8-1.43,5.54,0,10.6.86,15.16,2.58,4.57,1.72,8.46,4.18,11.69,7.37,3.23,3.19,5.73,7.05,7.51,11.58,1.78,4.53,2.67,9.58,2.67,15.16ZM184.42,426.23c0-1.64-.24-3.24-.72-4.79-.48-1.55-1.18-2.92-2.09-4.13-.92-1.2-2.06-2.18-3.41-2.92-1.36-.75-2.91-1.12-4.67-1.12s-3.4.33-4.82.97c-1.41.65-2.63,1.54-3.64,2.67-1.01,1.13-1.79,2.45-2.32,3.96-.54,1.51-.8,3.11-.8,4.79s.23,3.21.69,4.82c.46,1.6,1.15,3.06,2.06,4.36.92,1.3,2.05,2.35,3.41,3.15,1.36.8,2.93,1.2,4.73,1.2s3.41-.35,4.84-1.06c1.43-.71,2.65-1.66,3.64-2.87.99-1.2,1.76-2.59,2.29-4.16.53-1.57.8-3.19.8-4.87Z" fill="url(#Naamloos_verloop_10)" stroke-width="0"/>
        <path d="M276.4,444.76c0,5.51-.96,10.33-2.87,14.45-1.91,4.12-4.52,7.55-7.84,10.29-3.32,2.74-7.2,4.79-11.64,6.15-4.44,1.37-9.22,2.05-14.33,2.05-1.97,0-4.13-.26-6.49-.78-2.35-.52-4.74-1.18-7.15-1.96s-4.74-1.63-6.97-2.53c-2.23-.9-4.21-1.76-5.94-2.56l2.65-24.86c3.42,2.05,7.21,3.61,11.37,4.68,4.16,1.07,8.25,1.6,12.28,1.6.76,0,1.69-.03,2.78-.09,1.09-.06,2.12-.24,3.11-.54.98-.3,1.82-.75,2.5-1.36.68-.6,1.03-1.47,1.03-2.59,0-.76-.24-1.42-.72-1.96s-1.11-.98-1.87-1.33c-.76-.34-1.63-.6-2.59-.78-.97-.18-1.91-.31-2.84-.39-.93-.08-1.79-.12-2.59-.12h-1.93c-3.46,0-6.61-.6-9.44-1.81-2.84-1.21-5.27-2.89-7.3-5.04-2.03-2.15-3.61-4.71-4.74-7.66-1.13-2.96-1.69-6.16-1.69-9.62,0-4.75.95-9,2.87-12.76,1.91-3.76,4.46-6.96,7.66-9.59,3.2-2.63,6.87-4.66,11.01-6.06,4.14-1.41,8.43-2.11,12.85-2.11,1.97,0,4,.07,6.09.21,2.09.14,4.17.39,6.24.75,2.07.36,4.09.82,6.06,1.39,1.97.56,3.84,1.27,5.61,2.11l-2.29,24.49c-2.74-.92-5.6-1.7-8.6-2.32-3-.62-5.92-.93-8.78-.93-.52,0-1.2,0-2.02.03-.82.02-1.69.08-2.59.18-.9.1-1.82.25-2.74.45-.93.2-1.75.47-2.47.81-.72.34-1.31.79-1.75,1.36-.44.56-.64,1.23-.6,1.99.04.88.37,1.6,1,2.14.62.54,1.43.96,2.41,1.27.99.3,2.07.51,3.26.63,1.19.12,2.36.19,3.53.21,1.17.02,2.25.02,3.26,0,1-.02,1.83.01,2.47.09,3.22.2,6.11.88,8.69,2.05,2.57,1.17,4.76,2.71,6.55,4.65,1.79,1.93,3.16,4.23,4.1,6.91.94,2.67,1.42,5.62,1.42,8.84Z" fill="url(#Naamloos_verloop_10)" stroke-width="0"/>
        <path d="M341.87,391.16l-.58,24.78-17.41.7-4.44,55.39-24.66,1.29.12-55.39-17.41.93.7-27.58,63.69-.12Z" fill="url(#Naamloos_verloop_10)" stroke-width="0"/>
        <path d="M389.03,394.32c-.19,2.95-.36,5.86-.52,8.75-.16,2.88-.36,5.8-.61,8.75l-19.94,1.03-.47,5.92h14.01l-1.04,14.58-14.11.47-.47,6.87h19.94c-.19,3.45-.38,6.87-.59,10.27-.2,3.4-.38,6.81-.54,10.23l-40.53.94,1.5-67.8h43.35Z" fill="url(#Naamloos_verloop_10)" stroke-width="0"/>
        <path d="M463.98,420.13c0,3.22-.28,6.14-.84,8.76-.56,2.62-1.44,5.03-2.63,7.22-1.2,2.19-2.75,4.21-4.65,6.07-1.9,1.86-4.19,3.63-6.88,5.33l14.74,26.26-27.87,5.45-9.54-26.39-7.68.25-1.11,25.77h-26.63c.21-9.42.4-18.79.59-28.12.19-9.33.4-18.71.65-28.12.08-4.75.16-9.46.25-14.12.08-4.67.25-9.37.5-14.12,2.89-1.07,5.74-1.96,8.55-2.66,2.81-.7,5.63-1.25,8.46-1.64,2.83-.39,5.7-.66,8.61-.8s5.89-.22,8.95-.22c4.71,0,9.26.65,13.66,1.95,4.4,1.3,8.29,3.25,11.68,5.85,3.38,2.6,6.1,5.84,8.14,9.72,2.04,3.88,3.07,8.4,3.07,13.57ZM436.23,422.11c0-1.73-.24-3.32-.71-4.77s-1.18-2.7-2.11-3.75c-.93-1.05-2.09-1.88-3.47-2.48-1.38-.6-3-.9-4.86-.9-.83,0-1.63.05-2.42.16-.79.1-1.55.26-2.29.46l-.99,23.04h1.49c1.77,0,3.58-.23,5.42-.68,1.84-.45,3.49-1.16,4.96-2.11,1.46-.95,2.66-2.17,3.59-3.65.93-1.49,1.39-3.26,1.39-5.33Z" fill="url(#Naamloos_verloop_10)" stroke-width="0"/>
        <path d="M588.13,433.71c0,6.95-1.29,13.57-3.87,19.88-2.58,6.31-6.45,11.83-11.62,16.59l9.46,11.24-25.08,16.18-5.89-16.18c-1.74.37-3.48.64-5.24.82-1.76.18-3.53.27-5.31.27-4.39,0-8.59-.55-12.61-1.64-4.02-1.1-7.79-2.64-11.31-4.63-3.52-1.99-6.72-4.4-9.6-7.23-2.88-2.83-5.36-5.99-7.44-9.46-2.08-3.47-3.68-7.23-4.8-11.27-1.12-4.04-1.68-8.26-1.68-12.65s.54-8.56,1.61-12.65c1.07-4.09,2.6-7.94,4.59-11.55,1.99-3.61,4.39-6.91,7.2-9.9,2.81-2.99,5.95-5.57,9.42-7.75,3.47-2.17,7.22-3.85,11.24-5.04,4.02-1.19,8.25-1.78,12.68-1.78,7.08,0,13.58,1.07,19.5,3.22,5.92,2.15,11,5.23,15.25,9.25,4.25,4.02,7.56,8.92,9.94,14.7,2.38,5.78,3.56,12.3,3.56,19.57ZM554.82,435.63c0-2.1-.31-4.15-.92-6.13-.62-1.99-1.52-3.75-2.71-5.28-1.19-1.53-2.67-2.75-4.45-3.67-1.78-.91-3.84-1.37-6.17-1.37s-4.34.4-6.17,1.2c-1.83.8-3.39,1.91-4.69,3.32-1.3,1.42-2.31,3.08-3.02,5-.71,1.92-1.06,4-1.06,6.24,0,2.1.31,4.17.92,6.2.62,2.03,1.52,3.86,2.71,5.48,1.19,1.62,2.67,2.94,4.46,3.94,1.78,1.01,3.84,1.51,6.17,1.51s4.28-.45,6.13-1.34c1.85-.89,3.43-2.09,4.73-3.6,1.3-1.51,2.31-3.26,3.02-5.24.71-1.99,1.06-4.08,1.06-6.27Z" fill="url(#Naamloos_verloop_10)" stroke-width="0"/>
        <path d="M661.99,409.72c0,2.87-.14,6.03-.41,9.48-.27,3.45-.72,7.02-1.34,10.7-.62,3.68-1.42,7.41-2.41,11.19-.99,3.78-2.22,7.41-3.69,10.9-1.47,3.49-3.19,6.75-5.15,9.8-1.96,3.04-4.21,5.7-6.74,7.96s-5.38,4.05-8.52,5.35-6.63,1.95-10.46,1.95c-4.5,0-8.4-.73-11.71-2.18-3.31-1.45-6.15-3.41-8.52-5.87-2.36-2.46-4.3-5.33-5.81-8.6s-2.69-6.74-3.55-10.41c-.85-3.66-1.44-7.4-1.77-11.22-.33-3.82-.49-7.49-.49-11.02,0-5.43.27-10.84.81-16.25.54-5.41,1.32-10.8,2.33-16.19l27.21,1.05c-1.05,6.08-1.95,12.2-2.7,18.34-.76,6.14-1.13,12.32-1.13,18.52,0,.66.03,1.64.09,2.94.06,1.3.16,2.75.32,4.36.15,1.61.38,3.25.67,4.94.29,1.69.69,3.23,1.19,4.62.5,1.39,1.11,2.54,1.83,3.43.72.89,1.56,1.34,2.53,1.34,1.12,0,2.13-.53,3.02-1.6.89-1.07,1.68-2.49,2.35-4.27.68-1.78,1.27-3.84,1.77-6.16s.93-4.75,1.28-7.27.63-5.04.84-7.56c.21-2.52.39-4.86.52-7.03.14-2.17.22-4.09.26-5.76.04-1.67.06-2.91.06-3.72,0-3.02-.05-6.04-.14-9.04-.1-3-.24-6-.44-8.98h27.21c.46,5.35.7,10.78.7,16.28Z" fill="url(#Naamloos_verloop_10)" stroke-width="0"/>
        <path d="M698.18,393.4l-6.42,79.5-24.63,1.28v-79.15l31.05-1.63Z" fill="url(#Naamloos_verloop_10)" stroke-width="0"/>
        <path d="M765.44,417.35l-31.39,42.36h30.29l-.41,29.06-61.14,2.47-2.74-26.87,35.78-46.61-32.76,2.47-.27-27.55h61.41l1.23,24.67Z" fill="url(#Naamloos_verloop_10)" stroke-width="0"/>
      </g>
    </g>
  </g>
</svg>